<?xml version="1.0" encoding="UTF-8"?>
<!DOCTYPE svg PUBLIC "-//W3C//DTD SVG 1.1//EN" "http://www.w3.org/Graphics/SVG/1.1/DTD/svg11.dtd">
<svg xmlns="http://www.w3.org/2000/svg" version="1.1" viewBox="0 0 120 120" style="shape-rendering:geometricPrecision; text-rendering:geometricPrecision; image-rendering:optimizeQuality; fill-rule:evenodd; clip-rule:evenodd" xmlns:xlink="http://www.w3.org/1999/xlink">
<g><path d="M 82.5,-0.5 C 83.1667,-0.5 83.8333,-0.5 84.5,-0.5C 94.848,16.869 105.181,34.2023 115.5,51.5C 115.5,52.5 115.5,53.5 115.5,54.5C 112.428,54.8174 109.428,54.4841 106.5,53.5C 104,49.1667 101.5,44.8333 99,40.5C 98.7104,42.0441 98.0437,43.3774 97,44.5C 95.6667,43.1667 94.3333,41.8333 93,40.5C 92.6667,44.5 92.3333,48.5 92,52.5C 91.6924,53.3081 91.1924,53.9747 90.5,54.5C 87,47.5 83.5,40.5 80,33.5C 77.829,38.6837 75.6624,43.8503 73.5,49C 72.5165,49.5908 71.8499,49.2575 71.5,48C 70.7933,44.7999 69.96,41.6332 69,38.5C 65.9188,44.3312 62.5855,49.9979 59,55.5C 57.4207,57.0412 55.5873,58.2078 53.5,59C 38.7887,59.1828 24.122,59.6828 9.5,60.5C 9.16667,62 8.83333,63.5 8.5,65C 8.62915,66.9806 9.29582,68.6472 10.5,70C 22.5,70.3333 34.5,70.6667 46.5,71C 50.5668,71.4384 53.0668,73.6051 54,77.5C 54.8508,83.2531 54.5174,88.9198 53,94.5C 51.5002,96.4687 49.6669,97.802 47.5,98.5C 31.5,98.5 15.5,98.5 -0.5,98.5C -0.5,96.1667 -0.5,93.8333 -0.5,91.5C 14.5037,91.6666 29.5037,91.4999 44.5,91C 45.1344,88.9255 45.4677,86.7588 45.5,84.5C 45.4101,82.0363 44.7435,79.8697 43.5,78C 31.8333,77.6667 20.1667,77.3333 8.5,77C 4.47037,76.6605 1.47037,74.8272 -0.5,71.5C -0.5,67.1667 -0.5,62.8333 -0.5,58.5C 1.22405,55.4582 3.89071,53.6249 7.5,53C 22.2597,52.9674 36.9263,52.3008 51.5,51C 62.0593,33.9472 72.3926,16.7805 82.5,-0.5 Z M 82.5,13.5 C 84.4331,14.6417 85.9331,16.3083 87,18.5C 89.8503,24.0099 92.6837,29.5099 95.5,35C 95.3333,35.5 95.1667,36 95,36.5C 93.6487,34.981 92.1487,33.6477 90.5,32.5C 89.6747,36.1224 89.1747,39.789 89,43.5C 86.4955,37.3164 83.9955,31.1498 81.5,25C 80.5509,24.3828 79.7175,24.5494 79,25.5C 77.5285,29.5811 75.8618,33.5811 74,37.5C 73.5,36 73,34.5 72.5,33C 75.9794,26.5405 79.3128,20.0405 82.5,13.5 Z"/></g>
<g><path d="M -0.5,4.5 C 2.16667,4.5 4.83333,4.5 7.5,4.5C 7.20135,15.0396 7.53468,25.5396 8.5,36C 8.90536,36.9454 9.57203,37.6121 10.5,38C 20.1667,38.6667 29.8333,38.6667 39.5,38C 40.3081,37.6924 40.9747,37.1924 41.5,36.5C 42.4768,25.8853 42.8101,15.2186 42.5,4.5C 45.1667,4.5 47.8333,4.5 50.5,4.5C 50.6665,16.1714 50.4999,27.8381 50,39.5C 48.7494,42.3807 46.5827,44.214 43.5,45C 31.1667,45.6667 18.8333,45.6667 6.5,45C 3.37935,44.0332 1.04602,42.1999 -0.5,39.5C -0.5,27.8333 -0.5,16.1667 -0.5,4.5 Z"/></g>
<g><path  d="M 115.5,57.5 C 115.5,59.8333 115.5,62.1667 115.5,64.5C 101.496,64.3334 87.496,64.5001 73.5,65C 72.5838,65.3742 71.7504,65.8742 71,66.5C 70.3333,74.1667 70.3333,81.8333 71,89.5C 71.5,90 72,90.5 72.5,91C 86.7743,92.4304 101.108,92.9304 115.5,92.5C 115.5,94.5 115.5,96.5 115.5,98.5C 99.8333,98.5 84.1667,98.5 68.5,98.5C 66.1849,97.4156 64.3516,95.749 63,93.5C 62.3333,83.1667 62.3333,72.8333 63,62.5C 65.194,59.8194 68.0273,58.3194 71.5,58C 86.1629,57.5001 100.83,57.3334 115.5,57.5 Z"/></g>
</svg>
