<svg width="100%" height="100%" viewBox="0 0 24 24" fill="none"  xmlns="http://www.w3.org/2000/svg">
<g id="Icons">
<path id="Vector" d="M12.0679 4.00557H18.2263C19.4209 4.00557 19.993 4.53559 19.993 5.68818C19.993 9.85545 19.993 14.0199 19.993 18.1816C19.993 19.4351 19.463 19.9567 18.201 19.9567C14.1039 19.9904 9.89733 19.9904 5.79176 19.9904C5.62655 20.0032 5.4606 20.0032 5.29539 19.9904C4.93137 19.9352 4.59991 19.7494 4.36299 19.4676C4.12608 19.1858 3.99995 18.8273 4.00819 18.4592C4.05026 16.9869 4.00819 15.523 4.00819 14.0508C4.00819 11.2801 4.00819 8.49253 4.00819 5.68818C3.96664 5.28141 4.08424 4.87436 4.3363 4.55242C4.50367 4.3618 4.71336 4.21304 4.94859 4.11808C5.18381 4.02311 5.43801 3.98458 5.6908 4.00557C7.79407 4.00557 9.89733 4.00557 12.0679 4.00557ZM5.58143 8.28781H18.4787V5.59564H5.58143V8.28781ZM9.78796 11.2913C9.76467 11.13 9.69502 10.9789 9.58748 10.8564C9.47995 10.734 9.33916 10.6454 9.18222 10.6014C9.00757 10.6175 8.84231 10.6878 8.70956 10.8024C8.57682 10.9171 8.48323 11.0703 8.44187 11.2408C8.46427 11.4047 8.53447 11.5583 8.6437 11.6825C8.75293 11.8067 8.89635 11.8959 9.05603 11.9391C9.22879 11.9191 9.39113 11.8461 9.5207 11.7301C9.65026 11.6141 9.7407 11.4608 9.77955 11.2913H9.78796ZM17.7635 10.593C17.5912 10.6308 17.4352 10.7218 17.3174 10.8531C17.1996 10.9845 17.1262 11.1495 17.1073 11.3249C17.1485 11.485 17.2358 11.6294 17.3585 11.7401C17.4812 11.8508 17.6338 11.9229 17.7972 11.9475C17.9708 11.9092 18.1277 11.817 18.2456 11.684C18.3635 11.551 18.4363 11.384 18.4534 11.2071C18.4103 11.0475 18.321 10.9041 18.1968 10.7948C18.0726 10.6856 17.919 10.6154 17.7551 10.593H17.7635ZM6.25448 16.398C6.08917 16.3982 5.92945 16.4578 5.80438 16.5659C5.67931 16.674 5.59721 16.8234 5.57302 16.9869C5.56805 17.0709 5.57966 17.155 5.6072 17.2345C5.63474 17.314 5.67767 17.3872 5.73352 17.4501C5.78938 17.513 5.85708 17.5643 5.93275 17.601C6.00842 17.6377 6.09059 17.6592 6.17455 17.6642C6.25852 17.6691 6.34264 17.6575 6.42212 17.63C6.5016 17.6024 6.57487 17.5595 6.63776 17.5037C6.70065 17.4478 6.75192 17.3801 6.78865 17.3044C6.82537 17.2288 6.84683 17.1466 6.8518 17.0626C6.85265 16.8974 6.79194 16.7378 6.68151 16.6149C6.57108 16.4921 6.41884 16.4147 6.25448 16.398ZM14.9199 16.398C14.7546 16.3982 14.5949 16.4578 14.4698 16.5659C14.3448 16.674 14.2627 16.8234 14.2385 16.9869C14.2335 17.0709 14.2451 17.155 14.2727 17.2345C14.3002 17.314 14.3431 17.3872 14.399 17.4501C14.4548 17.513 14.5225 17.5643 14.5982 17.601C14.6739 17.6377 14.756 17.6592 14.84 17.6642C14.924 17.6691 15.0081 17.6575 15.0876 17.63C15.167 17.6024 15.2403 17.5595 15.3032 17.5037C15.3661 17.4478 15.4174 17.3801 15.4541 17.3044C15.4908 17.2288 15.5123 17.1466 15.5173 17.0626C15.5188 16.9013 15.4616 16.7449 15.3564 16.6226C15.2511 16.5003 15.105 16.4205 14.9452 16.398H14.9199ZM12.009 10.593C11.8437 10.6133 11.6902 10.6894 11.5739 10.8087C11.4577 10.928 11.3856 11.0834 11.3696 11.2492C11.3815 11.4141 11.4459 11.5709 11.5534 11.6966C11.6609 11.8222 11.8058 11.9102 11.9669 11.9475C12.1308 11.9251 12.2845 11.8549 12.4087 11.7457C12.5328 11.6364 12.6221 11.493 12.6652 11.3333C12.6481 11.1564 12.5753 10.9895 12.4574 10.8565C12.3396 10.7235 12.1826 10.6313 12.009 10.593ZM9.77955 14.1854C9.75888 14.0199 9.68419 13.8659 9.56706 13.7473C9.44993 13.6286 9.29691 13.5519 9.13174 13.5291C8.9671 13.5379 8.80982 13.6002 8.68379 13.7064C8.55776 13.8127 8.46986 13.9573 8.43346 14.1181C8.45878 14.2924 8.53816 14.4543 8.66042 14.5811C8.78268 14.7079 8.94165 14.7931 9.11492 14.8248C9.27592 14.7945 9.42458 14.7178 9.54265 14.6042C9.66072 14.4907 9.74305 14.3451 9.77955 14.1854ZM17.7888 13.5291C17.6238 13.542 17.4673 13.6079 17.343 13.7171C17.2186 13.8263 17.133 13.9729 17.0989 14.1349C17.1285 14.3085 17.2117 14.4685 17.337 14.5922C17.4623 14.716 17.6232 14.7973 17.7972 14.8248C17.9573 14.7903 18.1039 14.7099 18.219 14.5933C18.3341 14.4767 18.4126 14.3291 18.445 14.1685C18.4205 14.0049 18.3431 13.8538 18.2246 13.7383C18.1061 13.6229 17.953 13.5494 17.7888 13.5291ZM14.8947 11.9391C15.0589 11.9164 15.2103 11.838 15.3237 11.717C15.437 11.596 15.5053 11.4398 15.5173 11.2744C15.5079 11.1101 15.4428 10.9538 15.3327 10.8315C15.2226 10.7091 15.074 10.6279 14.9115 10.6014C14.7346 10.6225 14.5706 10.7046 14.4478 10.8336C14.3249 10.9626 14.2509 11.1304 14.2385 11.3081C14.2672 11.4691 14.3461 11.6169 14.464 11.7303C14.5819 11.8436 14.7327 11.9167 14.8947 11.9391ZM6.84339 14.1012C6.82655 13.9376 6.7489 13.7863 6.62582 13.6773C6.50273 13.5682 6.34318 13.5093 6.17876 13.5123C6.01571 13.5305 5.86469 13.6068 5.75341 13.7274C5.64214 13.8479 5.57809 14.0046 5.57302 14.1685C5.588 14.3463 5.67043 14.5116 5.80341 14.6305C5.93638 14.7494 6.10982 14.8129 6.28813 14.8079C6.44754 14.7714 6.58961 14.6813 6.69065 14.5527C6.79169 14.4241 6.8456 14.2648 6.84339 14.1012ZM15.5088 14.1012C15.5024 13.9375 15.4333 13.7825 15.3159 13.6682C15.1985 13.554 15.0417 13.4891 14.8779 13.4871C14.7135 13.4986 14.5587 13.5685 14.4414 13.6842C14.3241 13.8 14.2521 13.9539 14.2385 14.1181C14.247 14.2959 14.3232 14.4638 14.4515 14.5873C14.5797 14.7109 14.7503 14.7808 14.9283 14.7827C15.0828 14.7567 15.224 14.6795 15.3293 14.5635C15.4346 14.4475 15.4978 14.2995 15.5088 14.1433V14.1012ZM9.13174 17.6347C9.29702 17.6235 9.45292 17.5538 9.57158 17.4383C9.69025 17.3227 9.76396 17.1687 9.77955 17.0037C9.75335 16.8414 9.67666 16.6914 9.56037 16.5751C9.44408 16.4588 9.2941 16.3821 9.13174 16.3559C8.95779 16.3834 8.79684 16.4647 8.67156 16.5885C8.54629 16.7122 8.46301 16.8722 8.43346 17.0458C8.45709 17.2163 8.54004 17.373 8.66774 17.4884C8.79545 17.6038 8.95974 17.6705 9.13174 17.6768V17.6347ZM12.0006 17.6347C12.1645 17.6266 12.3204 17.5617 12.4417 17.4512C12.563 17.3407 12.642 17.1914 12.6652 17.029C12.6568 16.8503 12.5809 16.6815 12.4528 16.5566C12.3248 16.4317 12.1542 16.36 11.9754 16.3559C11.8121 16.3755 11.661 16.4521 11.5487 16.5721C11.4363 16.6921 11.3699 16.848 11.3612 17.0122C11.3611 17.1841 11.4276 17.3495 11.5469 17.4734C11.6661 17.5974 11.8287 17.6703 12.0006 17.6768V17.6347ZM12.6652 14.1349C12.6543 13.9709 12.5858 13.8161 12.472 13.6976C12.3581 13.5791 12.2061 13.5045 12.0427 13.4871C11.8788 13.4893 11.7211 13.5498 11.5978 13.6577C11.4745 13.7656 11.3936 13.9139 11.3696 14.076C11.3769 14.2395 11.4364 14.3963 11.5394 14.5235C11.6423 14.6507 11.7833 14.7415 11.9417 14.7827C12.109 14.7656 12.2674 14.6988 12.3964 14.5908C12.5254 14.4828 12.619 14.3387 12.6652 14.177V14.1349Z" />
</g>
</svg>
