<svg xmlns="http://www.w3.org/2000/svg" viewBox="0 0 21.66 20"><g id="Layer_2" data-name="Layer 2"><g id="Layer_1-2" data-name="Layer 1"><path d="M18.26,7.78c0,.48.06.78.06,1.08,0,3,0,6,0,9.07,0,1.45-.6,2.06-2.09,2.06q-7,0-14,0C.58,20,0,19.41,0,17.79V3.85c0-.16,0-.32,0-.48A1.69,1.69,0,0,1,1.83,1.7c1.4,0,2.8,0,4.2,0h9.34c-.09.24-.11.41-.21.5-1.31,1.34-2.64,2.65-3.95,4a1.68,1.68,0,0,1-1.34.54c-2.33,0-4.65,0-7,0H2a109.76,109.76,0,0,0-.09,11.39c.66.19,13,.26,14.64.07,0-.32,0-.66,0-1,0-2.29,0-4.58,0-6.87a1.72,1.72,0,0,1,.61-1.51C17.52,8.53,17.82,8.21,18.26,7.78Z"/><path d="M8.32,13.41c.18-1.28.11-2.37,1.06-3.29,2.56-2.46,5-5,7.54-7.52.5-.49.68-.49,1.18,0,.34.33.67.67,1,1,.48.5.49.64,0,1.09l-5,5c-.9.89-1.84,1.75-2.69,2.68a2.33,2.33,0,0,1-1.47.77C9.51,13.19,9,13.29,8.32,13.41Z"/><path d="M21.66,1.71a6.2,6.2,0,0,1-.45.91c-.25.36-.55.37-.88.06S19.44,1.79,19,1.35a.5.5,0,0,1,0-.76A1.68,1.68,0,0,1,20.57.05,1.83,1.83,0,0,1,21.66,1.71Z"/></g></g></svg>