<svg xmlns="http://www.w3.org/2000/svg" viewBox="0 0 19.24 19.26"><g id="Layer_2" data-name="Layer 2"><g id="Layer_1-2" data-name="Layer 1"><path d="M9.68,19.25c-2.46,0-4.92,0-7.38,0C.62,19.25.12,18.66,0,17A45.87,45.87,0,0,1,.75,8.25c.25-1.83.49-3.67.76-5.5.06-.44.17-.86.27-1.29A1.67,1.67,0,0,1,3.58,0C4.76,0,5.94,0,7.11,0c2.73,0,5.47,0,8.19,0a2.08,2.08,0,0,1,2.4,2c.22,1.61.47,3.21.69,4.81.25,1.8.57,3.6.71,5.41s.16,3.63.12,5.45c0,1-.74,1.57-2,1.58-2.36,0-4.72,0-7.08,0ZM1.75,13.2c1.62,0,3.06,0,4.51,0a1.28,1.28,0,0,1,1.23.59,2.55,2.55,0,0,0,4.39,0,1.07,1.07,0,0,1,1.06-.54c1.08,0,2.16,0,3.24,0,1.46,0,1.46,0,1.16-1.48,0-.1,0-.2,0-.3Q16.7,7,16.09,2.6c-.12-.83-.15-.86-1-.87H4.23c-.87,0-.87,0-1,.89C3,4.46,2.7,6.29,2.44,8.13,2.21,9.76,2,11.39,1.75,13.2Z"/></g></g></svg>