<svg xmlns="http://www.w3.org/2000/svg" viewBox="0 0 20 15.27"><g id="Layer_2" data-name="Layer 2"><g id="Layer_1-2" data-name="Layer 1"><path d="M7,15.09c0-.3,0-.56,0-.82v-12c0-.89,0-.87.89-1C9.3.9,10.75.59,12.19.27,13,.09,13,.12,13,1c0,3.78,0,7.55,0,11.33a8.53,8.53,0,0,1,0,1.24.68.68,0,0,1-.4.47c-1.71.38-3.42.73-5.13,1.08A4,4,0,0,1,7,15.09Z"/><path d="M5.33,15.11c-1.66-.46-3.2-.87-4.72-1.33C.14,13.63,0,13.21,0,12.7c0-1.78,0-3.56,0-5.35,0-2,0-4.1,0-6.15C0,.06.33-.19,1.42.12s2.26.69,3.4,1c.32.09.51.2.51.59C5.32,6.14,5.33,10.57,5.33,15.11Z"/><path d="M14.78.19c1.48.43,2.91.87,4.36,1.28A1.05,1.05,0,0,1,20,2.62c0,3.86,0,7.72,0,11.58,0,1-.31,1.24-1.27,1-1.22-.33-2.43-.73-3.65-1.07a.49.49,0,0,1-.43-.55q0-6.54,0-13.09C14.66.41,14.71.35,14.78.19Z"/></g></g></svg>