<svg xmlns="http://www.w3.org/2000/svg" viewBox="0 0 19.02 20"><g id="Layer_2" data-name="Layer 2"><g id="Layer_1-2" data-name="Layer 1"><path d="M14.67,5.73a5.18,5.18,0,0,1-10.33.81A5.51,5.51,0,0,1,6,1.42a4.86,4.86,0,0,1,5.48-1,5,5,0,0,1,3.18,4.77Z"/><path d="M9.4,19.93l-7.51-.06A1.81,1.81,0,0,1,.35,19.3a1.5,1.5,0,0,1,.31-2.22A16.5,16.5,0,0,1,4,15.14,17.23,17.23,0,0,1,8.24,14a13.43,13.43,0,0,1,3.57.21,13.77,13.77,0,0,1,5.7,2.29,7.83,7.83,0,0,1,1.16,1.07A1.47,1.47,0,0,1,17.61,20c-.3,0-.6,0-.9,0Z"/></g></g></svg>