<svg xmlns="http://www.w3.org/2000/svg" viewBox="0 0 20.44 20.31"><g id="Layer_2" data-name="Layer 2"><g id="Layer_1-2" data-name="Layer 1"><path d="M0,8.48A8.81,8.81,0,0,1,7.56.07a8.47,8.47,0,0,1,9.06,5.87,8.28,8.28,0,0,1-1,7.12c-.5.77-.51.78.17,1.47,1.39,1.42,2.81,2.81,4.2,4.23.53.54.56.89.19,1.26A.75.75,0,0,1,19,20l-2.41-2.39c-.67-.67-1.33-1.33-2-2a.88.88,0,0,0-1.34-.15,8,8,0,0,1-6.9,1.15A8,8,0,0,1,.72,11.4,24.4,24.4,0,0,1,0,8.48Zm15.39,0a6.81,6.81,0,1,0-13.62,0,6.9,6.9,0,0,0,6.87,6.88A6.85,6.85,0,0,0,15.39,8.44Z"/></g></g></svg>