<svg xmlns="http://www.w3.org/2000/svg" viewBox="0 0 17.03 17.02"><g id="Layer_2" data-name="Layer 2"><g id="Layer_1-2" data-name="Layer 1"><path d="M11.26,3.47c.15-2,.94-3.17,2.31-3.42a2.91,2.91,0,0,1,3.16,1.6A2.78,2.78,0,0,1,16,5c-.94.78-2.14,1.25-4.09-.18L6.32,7.66a.9.9,0,0,0-.59.93.92.92,0,0,0,.64.84L11.42,12a.9.9,0,0,0,1.08-.13,2.66,2.66,0,0,1,3.19-.09A2.68,2.68,0,0,1,17,14.6a2.7,2.7,0,0,1-2,2.3,2.8,2.8,0,0,1-3.64-2.7.88.88,0,0,0-.53-.89Q8.14,12,5.51,10.67a.72.72,0,0,0-.89.09,2.74,2.74,0,0,1-3.51,0A2.82,2.82,0,0,1,.25,7.35,2.84,2.84,0,0,1,4.41,6.14a1.13,1.13,0,0,0,1.33.11C7.56,5.32,9.39,4.41,11.26,3.47Z"/></g></g></svg>