<svg xmlns="http://www.w3.org/2000/svg" viewBox="0 0 205.64 196.11"><g id="Layer_2" data-name="Layer 2"><g id="Layer_1-2" data-name="Layer 1"><path d="M89.12,131.37c0-4.25.24-8.51-.07-12.74-.29-3.89,3.26-7.94,7.48-9.71a14.08,14.08,0,0,0,3.54-2.44,2.49,2.49,0,0,0-.82-1.7c-.59-.32-1.47-.09-2.21-.18-5.23-.62-10.44-1.44-15.69-1.83-4.18-.31-6.44,2.29-7.35,6.42a164,164,0,0,1-4.83,16.75c-.17.52-3.15,1-3.86.33-4.25-3.76-8.23-7.82-12.28-11.81-2-2,.27-13.06.41-13.66.91-4.13,1.7-8.28,2.65-12.4,1-4.28,6.18-8.28,10.63-8.29,6.58,0,13.16,0,19.74,0a9.28,9.28,0,0,0,2.28-.64,16.06,16.06,0,0,1-1.08-1.69c-.9-1.85-1.79-3.71-2.62-5.59-1-2.19-1.33-4.94-2.92-6.43-1-1-4.33-.84-5.63.13-5.27,3.88-10.19,8.23-15.15,12.5-2.61,2.25-5,4.8-7.56,7.06-3.23,2.81-6.55,5.53-9.92,8.16a75,75,0,0,1-8.15,5.71,7.21,7.21,0,0,1-4.5.67C24.15,98.76,19.53,90.12,23,83.76c1.31-2.44,4.52-3.84,6.8-5.78,2.54-2.16,5-4.43,7.52-6.58,3.55-3,7.21-5.86,10.73-8.89,6.51-5.58,12.6-11.73,19.55-16.67,4-2.83,7.93-6.35,14-6,5.8.36,11.74-1.13,17.6-2,4.14-.62,8.22-1.61,12.35-2.31,4.61-.79,9.25-1.38,13.87-2.14,4.46-.74,8.9-1.63,13.37-2.38s8.82-1.1,13.09-2.19c3.19-.8,6.12-2.57,9.21-3.76,2.52-1,5.17-1.62,7.68-2.61,5.06-2,9.93-4.53,15.11-6.08a52.19,52.19,0,0,1,14.91-2.47c2,0,4.72,2.93,5.94,5.16,2.95,5.37-1.33,13-7.12,14.74-4.55,1.4-8.73,4-13.14,5.88-2.58,1.1-5.3,1.86-7.91,2.88-3.33,1.29-6.59,2.75-9.92,4a43.12,43.12,0,0,1-7.28,2.33c-5.56,1-11.18,1.76-16.78,2.61-4.71.71-9.43,1.39-14.12,2.2-.41.07-1.09,1.24-1,1.51,2.6,4.77,5.54,9.36,7.93,14.23a84.32,84.32,0,0,1,5.12,13c1.21,4.07,2.41,8.37,2.28,12.53-.22,7.53-4.53,13.44-9.84,18.41a92.06,92.06,0,0,1-10.68,8.25c-2,1.38-4.68,1.84-6.61,3.3-1.66,1.26-3.76,3.31-3.83,5.08-.39,9.4-.14,18.82-.29,28.23,0,1.41-.92,3.89-1.65,4a7.6,7.6,0,0,1-5.13-1.34c-5-3.88-9.73-8-14.4-12.24a5.51,5.51,0,0,1-1.19-3.61C89,140.54,89.12,136,89.12,131.37Z"/><path d="M113.21,196.05a91.57,91.57,0,0,0,9.23-.12,3.7,3.7,0,0,0,2.5-2.44c.91-5.91-4.8-7.52-7.73-10.78-3.57-4-8.2-7-12.28-10.59-3.67-3.2-7.19-6.57-10.81-9.82-2.4-2.16-4.89-4.21-7.29-6.37s-4.71-4.55-7.18-6.7c-4-3.48-8.17-6.77-12.14-10.29-3.6-3.18-7-6.64-10.55-9.84-3.13-2.79-6.5-5.32-9.63-8.12-4.4-3.94-8.64-8.06-13-12-3.12-2.83-6.37-5.53-9.53-8.32C22.24,98.4,20,95.71,17.19,94,12.09,90.78,1.72,96,.38,102S1.32,112.41,6,116.06c3.43,2.69,6.71,5.59,10,8.45,1.88,1.63,3.66,3.38,5.54,5,4.71,4.11,9.53,8.08,14.15,12.29,5.1,4.63,9.94,9.54,15,14.18,3.14,2.86,6.65,5.3,9.78,8.16,4.08,3.74,7.84,7.83,11.95,11.54s8.42,7.19,12.75,10.64c3.17,2.53,6.19,5.8,9.86,7Z"/><path d="M89.34.08c9.51-.87,18.2,8.27,18,18.11a18.49,18.49,0,0,1-18,18c-9.44.07-18-8.23-18.12-18.27C71.15,8.53,80.06-1,89.34.08Z"/></g></g></svg>