<svg xmlns="http://www.w3.org/2000/svg" viewBox="0 0 19.35 22.74"><g id="Layer_2" data-name="Layer 2"><g id="Layer_1-2" data-name="Layer 1"><path d="M10.5,18.4c0,1.13.06,2.27,0,3.41a.87.87,0,0,1-.85.93.9.9,0,0,1-.92-.88c-.06-.6,0-1.2,0-1.81V18.46l-1.05-.05c-1.85,0-3.69,0-5.54,0C.68,18.4,0,17.73,0,16.25Q0,9.15,0,2.07C0,.67.64,0,2,0h15.3a1.77,1.77,0,0,1,2,2q0,7.14,0,14.29a1.85,1.85,0,0,1-2.11,2.08c-2.25,0-4.5,0-6.75,0q0-4.92,0-9.85a1.26,1.26,0,0,1,.28-1.11c.34.38.63.74,1,1a5.88,5.88,0,0,0,1.15.92.86.86,0,0,0,.79-.17,1.14,1.14,0,0,0,.14-.81A.93.93,0,0,0,13.5,8c-1-1-2-2-3.05-3-.59-.57-.95-.56-1.56,0C8,5.73,7.22,6.56,6.39,7.39c-.3.31-.58.65-.86,1a.53.53,0,0,0,0,.73c.21.29.48.52.84.39A2.39,2.39,0,0,0,7.07,9c.53-.48,1-1,1.55-1.47l.21.08c.12,3.55,0,7.11.08,10.68Z"/></g></g></svg>