<svg xmlns="http://www.w3.org/2000/svg" viewBox="0 0 17.58 19"><g id="Layer_2" data-name="Layer 2"><g id="Layer_1-2" data-name="Layer 1"><path d="M8.68,15.6c-2.18,0-4.36-.08-6.53,0a1.86,1.86,0,0,1-1.78-3c.06-.07.08-.16.13-.23,1.07-1.48,1-3.18,1-4.88a7.49,7.49,0,0,1,1.79-5,7.31,7.31,0,0,1,11.66.75,7.45,7.45,0,0,1,1.22,4.31,5.61,5.61,0,0,1,0,.71,6.43,6.43,0,0,0,1.11,4.4,1.85,1.85,0,0,1-1.75,2.91C13.22,15.53,11,15.6,8.68,15.6Z"/><path d="M6,16.52h5.57A2.63,2.63,0,0,1,9,19,2.82,2.82,0,0,1,6,16.52Z"/></g></g></svg>