<svg xmlns="http://www.w3.org/2000/svg" viewBox="0 0 19 19"><g id="Layer_2" data-name="Layer 2"><g id="Layer_1-2" data-name="Layer 1"><path d="M9.58,0H16.9C18.32,0,19,.63,19,2q0,7.43,0,14.85c0,1.49-.63,2.11-2.13,2.11C12,19,7,19,2.12,19a3.81,3.81,0,0,1-.59,0A1.8,1.8,0,0,1,0,17.18c.05-1.75,0-3.49,0-5.24Q0,7,0,2A1.88,1.88,0,0,1,.39.65,1.93,1.93,0,0,1,2,0C4.5,0,7,0,9.58,0ZM1.87,5.09H17.2V1.89H1.87Zm5,3.57a1,1,0,0,0-.72-.82,1,1,0,0,0-.88.76A1,1,0,0,0,6,9.43,1,1,0,0,0,6.86,8.66Zm9.48-.83a1,1,0,0,0-.78.87,1,1,0,0,0,.82.74,1,1,0,0,0,.78-.88A1,1,0,0,0,16.34,7.83ZM2.67,14.73a.82.82,0,0,0-.81.7.76.76,0,1,0,1.52.09A.79.79,0,0,0,2.67,14.73Zm10.3,0a.82.82,0,0,0-.81.7.76.76,0,1,0,1.52.09A.79.79,0,0,0,13,14.73ZM9.51,7.83a.87.87,0,0,0-.76.78.92.92,0,0,0,.71.83,1,1,0,0,0,.83-.73A1,1,0,0,0,9.51,7.83ZM6.86,12.1a.9.9,0,0,0-.77-.78.9.9,0,0,0-.83.7,1,1,0,0,0,.81.84A1,1,0,0,0,6.86,12.1Zm9.52-.78a.91.91,0,0,0-.82.72,1,1,0,0,0,.83.82,1,1,0,0,0,.77-.78A.9.9,0,0,0,16.38,11.32ZM12.94,9.43a.86.86,0,0,0,.74-.79.86.86,0,0,0-.72-.8.91.91,0,0,0-.8.84A.92.92,0,0,0,12.94,9.43ZM3.37,12a.78.78,0,0,0-.79-.7.81.81,0,0,0-.72.78.83.83,0,0,0,.85.76A.85.85,0,0,0,3.37,12Zm10.3,0a.76.76,0,0,0-.75-.73.82.82,0,0,0-.76.75.83.83,0,0,0,.82.79A.83.83,0,0,0,13.67,12.05Zm-7.58,4.2a.83.83,0,0,0,.77-.75.93.93,0,0,0-.77-.77,1,1,0,0,0-.83.82A.87.87,0,0,0,6.09,16.25Zm3.41,0a.84.84,0,0,0,.79-.72.84.84,0,0,0-.82-.8.83.83,0,0,0-.73.78A.79.79,0,0,0,9.5,16.25Zm.79-4.16a.83.83,0,0,0-.74-.77.82.82,0,0,0-.8.7.91.91,0,0,0,.68.84A1,1,0,0,0,10.29,12.09Z"/></g></g></svg>