<svg width="11" height="10" viewBox="0 0 11 10" fill="none" xmlns="http://www.w3.org/2000/svg">
<g id="Group 28">
<path id="Vector" d="M6.45823 5.03617L7.6991 6.32476L10.151 8.77668C10.2076 8.82529 10.2614 8.87708 10.3121 8.93178C10.3892 9.05194 10.4302 9.19171 10.4302 9.33447C10.4302 9.47723 10.3892 9.617 10.3121 9.73716C10.2154 9.84291 10.0878 9.91543 9.94744 9.94435C9.80709 9.97328 9.6612 9.95714 9.53058 9.89823C9.35257 9.78925 9.19004 9.65682 9.04735 9.50449L5.72444 6.17562C5.65882 6.11 5.58723 6.05631 5.47985 5.96682C4.9489 6.48584 4.43585 6.98696 3.92876 7.49404L1.83479 9.58801C1.75861 9.67131 1.67471 9.74722 1.58423 9.81471C1.45459 9.91198 1.29536 9.96154 1.13341 9.95502C0.97147 9.9485 0.816737 9.8863 0.695338 9.77892C0.588923 9.64482 0.534544 9.4768 0.542218 9.30578C0.549892 9.13477 0.619101 8.97229 0.737099 8.84826C1.38736 8.18607 2.04956 7.5358 2.70579 6.87361L4.55516 5.01827C4.16739 4.61857 3.80348 4.21886 3.43361 3.86688C2.58051 3.02572 1.73337 2.15472 0.856413 1.29566C0.786689 1.23188 0.722801 1.162 0.66551 1.08686C0.576671 0.951146 0.536553 0.789288 0.551726 0.627796C0.5669 0.466305 0.636466 0.314752 0.74903 0.197965C0.871186 0.090403 1.03041 0.0346117 1.19299 0.0424064C1.35556 0.0502011 1.50872 0.12097 1.62003 0.239725C2.11518 0.705051 2.5984 1.19424 3.08163 1.6715L5.24719 3.83706C5.33275 3.90704 5.42462 3.96896 5.52161 4.02199C5.82586 3.73564 6.11818 3.46122 6.42243 3.1689L9.06525 0.502217C9.15901 0.408483 9.25864 0.320808 9.36353 0.239725C9.42298 0.178935 9.49398 0.130635 9.57235 0.0976591C9.65072 0.0646834 9.73489 0.0476968 9.81991 0.0476968C9.90494 0.0476968 9.98911 0.0646834 10.0675 0.0976591C10.1459 0.130635 10.2168 0.178935 10.2763 0.239725C10.3942 0.364808 10.4598 0.530193 10.4598 0.702069C10.4598 0.873944 10.3942 1.03933 10.2763 1.16441C10.0615 1.40901 9.8229 1.62377 9.5962 1.85644L6.6372 4.81543C6.57366 4.88578 6.51392 4.95946 6.45823 5.03617Z" fill="white"/>
</g>
</svg>
