<svg xmlns="http://www.w3.org/2000/svg" viewBox="0 0 19.35 17.75"><g id="Layer_2" data-name="Layer 2"><g id="Layer_1-2" data-name="Layer 1"><path d="M9.74,0h8.15a6,6,0,0,1,.74,0,.73.73,0,0,1,.72.8c0,.47-.23.86-.67.84-.75,0-1.09.44-1.47.93-1.53,1.93-3.08,3.85-4.6,5.78A1.33,1.33,0,0,1,11.43,9c-1.11,0-2.22,0-3.33,0a1.53,1.53,0,0,1-1.41-.67q-2.4-3-4.86-6a1.68,1.68,0,0,0-.9-.5C.26,1.57,0,1.34,0,.81S.32,0,1,0Z"/><path d="M7.28,17.75V10.5h4.85v4.26c0,1.42,0,1.44-1.3,1.87C9.7,17,8.56,17.34,7.28,17.75Z"/></g></g></svg>