<svg xmlns="http://www.w3.org/2000/svg" viewBox="0 0 144.71 138.38"><g id="Layer_2" data-name="Layer 2"><g id="Layer_1-2" data-name="Layer 1"><path d="M0,62.31c0-17.5-.08-35,.07-52.49,0-3.58,1-7.06,5.26-8.19,1.86-.49,4-2,5.45-1.52,2.27.81,4.68,1.53,6.36,4.3,2.29,3.78,1.56,7.46,1.58,11.18.14,19.41.06,38.82.09,58.24,0,4.9,4.35,10.92,9,12.46a32.7,32.7,0,0,0,6.46,1.85,12.3,12.3,0,0,0,10.51-4c2.14-2.25,3.63-1.42,5.43.35,3.67,3.57,10.72,5.47,15.69,2.17,2.08-1.38,4-3.11,6.26-4.07.71-.31,2.46,1.17,3.39,2.15,3.46,3.65,11.12,4.6,15.4,2,2.09-1.26,4.57-1.87,6.75-3,3.38-1.77,6.59-3.86,10-5.59s7.06-3.23,10.58-4.88c2.11-1,4.08-2.57,6.28-3,3.15-.62,6.69-1.23,9.63-.36s5.45,3.34,7.77,5.52c1.33,1.25,1.95,3.29,2.76,5,.12.27-.42,1-.8,1.32-4.69,4-9.29,8.14-14.16,11.92-3.44,2.67-7.36,4.73-10.86,7.35-1.39,1-2.15,2.92-3.31,4.31-2.25,2.69-4.62,5.26-6.86,8-2,2.38-3.75,5-5.83,7.24a97.17,97.17,0,0,1-9.53,9.61A41.74,41.74,0,0,1,83.7,136a24.52,24.52,0,0,1-9.19,2.27c-17.32.21-34.66.23-52-.05-2.84,0-5.91-1.48-8.41-3a58.14,58.14,0,0,1-9-7.22,11.52,11.52,0,0,1-2.79-4.69c-1-3-2.16-6.12-2.2-9.2C-.07,96.8,0,79.56,0,62.31Z"/><path d="M69.29,53.4c0,5.41-.32,10.85.12,16.23.29,3.5-1.22,6.17-2.67,8.87C64.88,82,60,82.07,56.23,80.3c-5.21-2.44-5.8-6.55-5.78-11.36,0-11.57-.1-23.15.08-34.72.07-5.12,6.12-10.37,11.29-8.77a10.07,10.07,0,0,1,5.8,4.33c2.31,3.68,1.44,7.25,1.62,10.88C69.46,44.89,69.29,49.15,69.29,53.4Z"/><path d="M25.33,56.28c0-4.16.35-8.36-.1-12.47-.4-3.61,1.11-6.5,2.42-9.48s7.64-3.61,10.58-1.7c1.73,1.12,3.9,1.37,4.28,4,.26,1.79,1.34,3.51,1.37,5.28.14,9.31.24,18.63,0,27.94a23.21,23.21,0,0,1-2.23,8.59c-1.55,3.47-7.22,3.69-10.67,2-5.5-2.71-5.64-7.23-5.61-12.15C25.35,64.26,25.33,60.27,25.33,56.28Z"/><path d="M94.44,56.38c0,4.5.28,9-.1,13.48A26.64,26.64,0,0,1,92,78.57c-1.54,3.36-7.27,3.54-10.54,1.89-5.52-2.78-5.7-7.37-5.68-12.39,0-9-.15-18,.1-27,.1-3.36.84-6.89,5-8,2-.53,4.06-1.67,6-1.56,3.35.19,7.4,5.32,7.44,8.83.06,5.33,0,10.66,0,16Z"/></g></g></svg>