<svg xmlns="http://www.w3.org/2000/svg" viewBox="0 0 24 13.21">
    <g id="Layer_2" data-name="Layer 2">
        <g id="Layer_1-2" data-name="Layer 1">
            <path
                transform="rotate(90 15 9)"
                d="M12,10.26c.43-.4.85-.75,1.23-1.14L21.58.74a3.51,3.51,0,0,1,.56-.46,1.13,1.13,0,0,1,1.53.08A1.21,1.21,0,0,1,23.7,2a16.74,16.74,0,0,1-1.23,1.3L14,11.81c-.35.35-.7.69-1.07,1A1.21,1.21,0,0,1,11,12.74L5.62,7.34.9,2.61A5.86,5.86,0,0,1,.29,1.9,1.05,1.05,0,0,1,.35.39,1.09,1.09,0,0,1,2,.31c.69.6,1.31,1.27,2,1.91l7.49,7.5C11.56,9.89,11.75,10,12,10.26Z" />
        </g>
    </g>
</svg>
 