<svg xmlns="http://www.w3.org/2000/svg" viewBox="0 0 15.62 19"><g id="Layer_2" data-name="Layer 2"><g id="Layer_1-2" data-name="Layer 1"><path d="M0,7.76A8,8,0,0,1,6,.22a7.82,7.82,0,0,1,9.29,5.3,7.59,7.59,0,0,1-2.1,7.87A12.77,12.77,0,0,1,11,15.16,5.11,5.11,0,0,0,8.8,17.78a2.35,2.35,0,0,1-.27.67c-.19.23-.47.56-.68.55a1.33,1.33,0,0,1-.78-.54,2.71,2.71,0,0,1-.37-.89c-.44-1.49-1.74-2.12-2.85-3A9,9,0,0,1,.16,9.28,12.62,12.62,0,0,1,0,7.76ZM7.83,9.85a2.07,2.07,0,0,0,0-4.13,2.14,2.14,0,0,0-2,2.08A2.12,2.12,0,0,0,7.83,9.85Z"/></g></g></svg>