<svg xmlns="http://www.w3.org/2000/svg" viewBox="0 0 163.81 157.49"><defs><style>.cls-1{fill:#fff;}</style></defs><g id="Layer_2" data-name="Layer 2"><g id="Layer_1-2" data-name="Layer 1"><path d="M33.27,157.42c-8.75,0-17.5-.16-26.24.07-3.69.09-5.34-2.61-6.8-4.8-.8-1.22.68-3.95,1.14-6,0-.15.2-.28.24-.43.77-3.34,1.4-6.73,2.33-10,1-3.55,2.31-7,3.49-10.52.1-.31.35-.58.42-.89.84-3.64,1.5-7.33,2.54-10.92.95-3.31,2.3-6.5,3.47-9.75a9.39,9.39,0,0,0,.41-1.16c.84-3.73,1.46-7.52,2.55-11.17.9-3,2.34-5.91,3.54-8.86a3.66,3.66,0,0,0,.25-.7C21.39,78.43,22,74.52,23,70.74c.93-3.44,2.39-6.73,3.55-10.1.79-2.29,1.54-4.6,2.19-6.94.93-3.31,1.9-6.62,2.55-10,.48-2.5,4.83-6.8,6.94-5.9a13.38,13.38,0,0,1,5.3,4.37c2.57,3.62,4.61,7.61,7,11.36a2.64,2.64,0,0,0,2.09.81,2.25,2.25,0,0,0,1.56-1.18c2.15-4.67,4.26-9.37,6.29-14.1.92-2.16,1.53-4.47,2.49-6.62.86-1.93,2-3.72,3-5.58.34-.64.62-1.31.92-2,1.31-2.87,2.67-5.72,3.93-8.61.92-2.1,1.59-4.31,2.6-6.36,1.7-3.48,2.8-7.4,6.44-9.59,2-1.21,6.13,1,7.89,4C89.78,8,92,11.51,94,15.16c2.36,4.34,4.41,8.85,6.83,13.16,3.13,5.56,6.55,11,9.71,16.49.77,1.36,1.17,2.63-1.35,3.47-2.36.78-4.23,3-6.4,4.46-3,2.07-6.21,3.95-9.23,6-1.9,1.31-3.58,2.94-5.45,4.3-3.78,2.74-7.77,5.21-11.4,8.14-4.44,3.57-9.45,6.41-12.31,12a15.28,15.28,0,0,0-1.63,7.41c-.06,21-.12,42,0,63,0,3.33-1,4-4.07,3.93C50.26,157.29,41.76,157.42,33.27,157.42Z"/><path d="M117.42,157.42c-12.91,0-25.82-.06-38.73.05-2.46,0-3.32-.62-3.3-3.21.1-20.48.17-41,0-61.46,0-4.48,2.82-6.4,5.62-8.62,2.35-1.87,4.83-3.58,7.31-5.28,2.83-2,5.73-3.79,8.59-5.7.93-.62,1.83-1.31,2.73-2,3.31-2.51,6.32-5.69,10-7.34s5.71-6.56,10.65-5.21a14.81,14.81,0,0,1,4.11,1.92c4.29,2.8,8.58,5.61,12.72,8.61,3.46,2.5,6.62,5.41,10.09,7.87s7.6,4.55,11.11,7.2c2.84,2.14,5.59,4.18,5.51,8.83-.33,18.9-.13,37.81-.14,56.71a7.74,7.74,0,0,1-7.52,7.6ZM94.24,103.59c0,2.24.07,4.49,0,6.72s.9,3.1,2.91,3.11q6.62,0,13.21,0c2,0,3-.91,3-3.06-.08-4.31-.07-8.63,0-13,0-2.1-.84-3-2.93-3q-6.6,0-13.21,0c-2,0-3.06.82-3,3S94.24,101.51,94.24,103.59Zm50.6.32c0-2.08-.09-4.16,0-6.23.13-2.32-.82-3.34-3.16-3.31-4.32.07-8.64,0-13,0-2,0-3,.79-3,3,.08,4.31.09,8.64,0,13,0,2.31,1.12,3.13,3.17,3.14q6.36,0,12.71,0c2.19,0,3.39-.91,3.25-3.31C144.74,108.07,144.83,106,144.84,103.91ZM94.23,135.25c0,2,.14,4,0,6-.25,2.9,1.18,3.84,3.82,3.8,3.82-.05,7.64-.06,11.46,0,2.84.06,4.12-1.12,3.87-4-.15-1.73,0-3.49,0-5.23,0-9.86,0-9.86-9.79-9.86C94.22,125.92,94.22,125.92,94.23,135.25Zm31.52,0c0,2.07.11,4.16,0,6.23-.18,2.64,1.14,3.57,3.56,3.55,3.82,0,7.64-.08,11.46,0,3.07.09,4.46-1.12,4.12-4.28a48.64,48.64,0,0,1,0-5c0-9.87,0-9.87-9.77-9.87C125.75,125.92,125.75,125.92,125.75,135.24Z"/><path class="cls-1" d="M94.24,103.59c0-2.08.07-4.16,0-6.23s.93-3,3-3q6.61,0,13.21,0c2.09,0,3,.93,2.93,3-.07,4.32-.08,8.64,0,13,0,2.15-1,3-3,3.06q-6.6,0-13.21,0c-2,0-3-1-2.91-3.11S94.24,105.83,94.24,103.59Z"/><path class="cls-1" d="M144.84,103.91c0,2.08-.1,4.16,0,6.23.14,2.4-1.06,3.31-3.25,3.31q-6.36,0-12.71,0c-2.05,0-3.22-.83-3.17-3.14.1-4.31.09-8.64,0-13,0-2.17,1-3,3-3,4.32,0,8.64,0,13,0,2.34,0,3.29,1,3.16,3.31C144.75,99.75,144.84,101.83,144.84,103.91Z"/><path class="cls-1" d="M94.23,135.25c0-9.33,0-9.33,9.31-9.33,9.79,0,9.79,0,9.79,9.86,0,1.74-.13,3.5,0,5.23.25,2.91-1,4.09-3.87,4-3.82-.07-7.64-.06-11.46,0-2.64,0-4.07-.9-3.82-3.8C94.37,139.25,94.23,137.24,94.23,135.25Z"/><path class="cls-1" d="M125.75,135.24c0-9.32,0-9.32,9.33-9.32,9.77,0,9.77,0,9.77,9.87a48.64,48.64,0,0,0,0,5c.34,3.16-1.05,4.37-4.12,4.28-3.82-.11-7.64-.05-11.46,0-2.42,0-3.74-.91-3.56-3.55C125.86,139.4,125.75,137.31,125.75,135.24Z"/></g></g></svg>