<svg xmlns="http://www.w3.org/2000/svg" viewBox="0 0 151.14 151.07"><defs><style>.cls-1{fill:#fff;}</style></defs><g id="Layer_2" data-name="Layer 2"><g id="Layer_1-2" data-name="Layer 1"><path d="M108,.11c6.83,0,13.68-.32,20.48.14,2.89.2,5.62,2.23,8.52,3.08,3.89,1.16,6.16,4.13,8.52,7a21,21,0,0,1,3.15,4.54c1,2.31,2.21,4.81,2.25,7.24.22,14,.28,28,0,42-.07,3.64-2.38,6.73-5.1,9.32-3.26,3.1-6.39,6.33-9.6,9.5-3.92,3.87-7.9,7.69-11.77,11.62-2.49,2.53-4.74,5.31-7.24,7.84-2.94,3-6.09,5.76-9.06,8.71-3.34,3.33-6.54,6.8-9.88,10.13-3,3-6.21,5.88-9.24,8.9-3.92,3.88-7.63,8-11.66,11.74C73,146,69.29,152,62.21,151c-3.31-.46-6.71-2.57-9.39-4.76-4.43-3.61-8.33-7.85-12.39-11.89-2.3-2.29-4.41-4.75-6.71-7-4.07-4-8.26-8-12.32-12-3-3-5.81-6-8.73-9C9.49,102.93,6.39,99.56,3,96.47s-3.85-8.87-1.74-13c3.52-6.83,9.73-11,14.77-16.29,3.78-4,7.49-8.07,11.37-12S35.35,47.8,39.2,44,46.63,36,50.48,32.21C55,27.7,59.81,23.44,64.34,18.92S73.2,9.45,77.85,5C80.5,2.39,83.48.05,87.54.06c6.83,0,13.66,0,20.49,0ZM86.11,99c-.6-2.36-1.52-6.48-2.72-10.52-1-3.42-2.62-6.69-3.49-10.14s-.49-6.71-1.8-10.22c-1.84-4.92-1.66-10.59-2.48-15.91-.6-3.86-1.37-7.69-2.23-11.5a2.41,2.41,0,0,0-2.12-.44c-1.54,1.22-2.81,2.77-4.28,4.1-1.85,1.66-2.84,3.56-2.13,6.09s1.52,4.89,2.06,7.39c.88,4,1.57,8,2.34,12a5.55,5.55,0,0,0,.15.73c1.2,3.69,2.67,7.31,3.56,11.06,1,4.19,1.46,8.51,2.14,12.77.8,5,1.67,10,2.31,15.06.29,2.34,1.4,2.33,3,1.54C83.67,109.52,86.43,104.57,86.11,99Zm-32.8-6.46C60,92.54,67,85.21,67.15,78.44s-8-16-15.89-15.52c-6.88.38-13.57,7.31-13.71,14.57C37.42,84.53,45.49,93.24,53.31,92.56Zm60.05-18.12c.52-8.27-8.17-15.14-14.76-15.86-7-.75-14.77,8.86-14.83,14-.1,7.36,7.64,15.84,15.63,15.69C106.28,88.09,113.35,81.25,113.36,74.44Zm12.55-61.95c-7.6,0-12.7,5.08-12.7,12.64S118.46,37.94,125.84,38s12.81-5.31,12.82-12.89S133.51,12.49,125.91,12.49Z"/><path class="cls-1" d="M86.11,99c.32,5.55-2.44,10.5-5.65,12-1.64.79-2.75.8-3-1.54-.64-5-1.51-10-2.31-15.06C74.43,90.2,74,85.88,73,81.69c-.89-3.75-2.36-7.37-3.56-11.06a5.55,5.55,0,0,1-.15-.73c-.77-4-1.46-8-2.34-12-.54-2.5-1.36-4.93-2.06-7.39s.28-4.43,2.13-6.09c1.47-1.33,2.74-2.88,4.28-4.1a2.41,2.41,0,0,1,2.12.44c.86,3.81,1.63,7.64,2.23,11.5.82,5.32.64,11,2.48,15.91,1.31,3.51,1,6.89,1.8,10.22s2.47,6.72,3.49,10.14C84.59,92.54,85.51,96.66,86.11,99Z"/><path class="cls-1" d="M53.31,92.56c-7.82.68-15.89-8-15.76-15.07.14-7.26,6.83-14.19,13.71-14.57,7.91-.44,16,8.84,15.89,15.52S60,92.54,53.31,92.56Zm1.45-10.49c.32-.42,1.64-1.36,1.73-2.41.34-3.63-2-6-5.39-6.15-2-.1-3.12.27-3.06,2.64C48.13,80,49.83,82,54.76,82.07Z"/><path class="cls-1" d="M113.36,74.44c0,6.81-7.08,13.65-14,13.79-8,.15-15.73-8.33-15.63-15.69.06-5.1,7.82-14.71,14.83-14C105.19,59.3,113.88,66.17,113.36,74.44Zm-10.57,1.64c0-4.74-2.23-6.88-5.79-7-1.82,0-2.74.53-2.7,2.54.06,3.74,2.21,6.16,5.84,5.91C101.23,77.5,102.25,76.4,102.79,76.08Z"/><path class="cls-1" d="M125.91,12.49c7.6,0,12.75,5.07,12.75,12.57S133.37,38,125.84,38s-12.63-5.34-12.63-12.82S118.31,12.49,125.91,12.49Z"/><path d="M54.76,82.07C49.83,82,48.13,80,48,76.15c-.06-2.37,1.09-2.74,3.06-2.64,3.42.18,5.73,2.52,5.39,6.15C56.4,80.71,55.08,81.65,54.76,82.07Z"/><path d="M102.79,76.08c-.54.32-1.56,1.42-2.65,1.5-3.63.25-5.78-2.17-5.84-5.91,0-2,.88-2.58,2.7-2.54C100.56,69.2,102.77,71.34,102.79,76.08Z"/></g></g></svg>