<svg xmlns="http://www.w3.org/2000/svg" viewBox="0 0 19.86 19"><g id="Layer_2" data-name="Layer 2"><g id="Layer_1-2" data-name="Layer 1"><path d="M14.39,11.9c.63,2,1.25,4,1.85,5.93a1.45,1.45,0,0,1,.06.74c-.15.47-.63.56-1.12.22-1-.71-2-1.43-3.07-2.16-.56-.39-1.14-.75-1.66-1.19a.72.72,0,0,0-1,0c-1.52,1.09-3.07,2.15-4.59,3.24-.32.23-.63.45-1,.2s-.32-.65-.19-1.07c.56-1.73,1-3.48,1.63-5.21a.9.9,0,0,0-.37-1.21c-1.34-1-2.65-2-4-2.93a2.93,2.93,0,0,1-.66-.54A1,1,0,0,1,0,7.2a.93.93,0,0,1,.62-.45,6.83,6.83,0,0,1,1.11,0c1.54,0,3.08,0,4.62,0a.93.93,0,0,0,1-.74C8,4.24,8.58,2.53,9.15.81c.13-.4.23-.79.74-.81s.7.41.84.82c.57,1.69,1.16,3.38,1.69,5.09a.94.94,0,0,0,1.08.8c1.8,0,3.59,0,5.39,0,.36,0,.78-.07.93.4a.84.84,0,0,1-.44,1c-1.49,1.09-3,2.2-4.45,3.3A6.94,6.94,0,0,0,14.39,11.9Z"/></g></g></svg>