<svg xmlns="http://www.w3.org/2000/svg" viewBox="0 0 164.12 126.17"><g id="Layer_2" data-name="Layer 2"><g id="Layer_1-2" data-name="Layer 1"><path d="M81.79,126.15c-22.66,0-45.32,0-68,0-5.4,0-10.1-1.77-12-7.49a27.2,27.2,0,0,1-1.69-7.73C-.09,102.06,0,93.22,0,84.39c0-2.25.63-3.45,3-4.84,3.12-1.82,5.49-5.27,7.52-8.45a17.88,17.88,0,0,0,2.14-7.45C13.47,56.9,10,52.05,5,48.13,3.87,47.29,2.48,46.85,1.38,46A3,3,0,0,1,.26,44c0-11.33-.36-22.68.29-34C.73,6.83,2.71,2.85,7.1,1.93,10.25,1.27,13.41.12,16.56.11,60.21,0,103.87,0,147.53,0c3.93,0,7.8.2,11.1,2.46a8.68,8.68,0,0,1,3.13,4c4.48,12.37,1,25.2,1.93,37.79,0,.61-1,1.53-1.68,1.93a21.63,21.63,0,0,0-9,9c-1.71,3.24-1.85,6.35-1.71,9.65.21,4.57,1.84,8.52,5.7,11.3,2,1.4,3.92,2.77,5.76,4.29a3,3,0,0,1,1,2.1c.05,11.08.43,22.19-.26,33.23a10.62,10.62,0,0,1-6.43,8.76c-3.51,1.64-6.81,1.66-10.29,1.67C125.12,126.18,103.45,126.15,81.79,126.15Z"/></g></g></svg>