<svg width="100%" height="auto" viewBox="0 0 480 222" fill="none" xmlns="http://www.w3.org/2000/svg">
    <path
        d="M358.874 19.1839C358.952 19.873 359.029 20.2565 359.035 20.6399C359.035 23.2772 359.035 25.9197 359.081 28.557C359.081 29.6243 358.692 30.3186 357.696 30.5673C356.091 31.0592 354.445 31.406 352.777 31.6036C349.805 31.7901 346.816 31.728 343.838 31.728C323.406 31.728 302.969 31.6969 282.537 31.728C279.672 31.7642 276.811 31.9771 273.971 32.3653C272.698 32.6152 271.472 33.0646 270.34 33.6969C269.666 34.0018 269.101 34.5029 268.717 35.1344C268.334 35.7659 268.151 36.4984 268.192 37.2357C268.192 41.1114 268.192 44.9853 268.192 48.8575C268.17 49.5916 268.357 50.3167 268.731 50.9492C269.105 51.5818 269.65 52.096 270.303 52.4326C272.231 53.5047 274.391 54.0899 276.597 54.1373C280.81 54.3238 285.033 54.4378 289.251 54.4482C304.054 54.4896 318.861 54.4119 333.664 54.5311C337.985 54.5673 342.339 54.9715 346.437 56.5311C348.395 57.2283 350.268 58.1443 352.02 59.2616C356.171 62.0596 358.277 66.1476 358.376 71.1062C358.5 77.5052 358.474 83.9041 358.376 90.2772C358.288 96.3912 355.392 100.847 349.919 103.604C346.438 105.35 342.648 106.397 338.764 106.686C335.962 106.904 333.145 107.044 330.338 107.049C306.976 107.08 283.615 107.089 260.253 107.075C259.138 107.075 258.022 107.256 256.907 107.329C256.518 107.355 256.123 107.329 255.734 107.329C254.973 107.267 254.209 107.257 253.446 107.298C252.704 107.381 252.409 107.117 252.315 106.438C252.302 106.213 252.302 105.989 252.315 105.764C252.315 102.619 252.315 99.4741 252.315 96.329C252.315 94.728 252.414 94.6554 254.069 94.6295C254.588 94.6295 255.081 94.6295 255.584 94.6295C280.242 94.6295 304.899 94.6295 329.554 94.6295C331.858 94.6295 334.167 94.4792 336.46 94.2513C337.571 94.0956 338.658 93.7978 339.692 93.3653C341.654 92.6347 342.536 91.1839 342.51 89.0596C342.458 84.6243 342.51 80.1891 342.51 75.7539C342.51 74.6347 342.463 73.5052 342.51 72.386C342.541 71.7923 342.429 71.1997 342.182 70.6586C341.936 70.1174 341.562 69.6436 341.093 69.2772C339.837 68.1254 338.224 67.4363 336.522 67.3238C333.773 67.1269 331.017 66.9456 328.262 66.9404C312.895 66.9041 297.527 66.9404 282.159 66.9145C277.43 66.9661 272.708 66.5618 268.057 65.7072C265.469 65.1738 262.972 64.2698 260.643 63.0233C255.537 60.3549 252.751 56.1217 252.377 50.3963C252.211 47.9404 252.294 45.4689 252.269 43.0026C252.269 41.5414 252.269 40.0855 252.217 38.6243C252.136 36.1007 252.514 33.5834 253.332 31.1943C254.343 28.1811 256.391 25.6236 259.112 23.9767C262.956 21.5947 267.318 20.1729 271.829 19.8316C276.54 19.4689 281.271 19.2098 285.993 19.1943C309.522 19.1373 333.051 19.1943 356.581 19.1943L358.874 19.1839Z"
        fill="#283D87" />
    <path
        d="M243.552 107.065H239.92C236.319 107.065 232.713 106.998 229.113 107.112C228.533 107.175 227.948 107.053 227.442 106.763C226.936 106.474 226.534 106.032 226.295 105.5C223.997 101.381 221.667 97.2826 219.348 93.1738C215.025 85.5088 210.694 77.8335 206.357 70.1479C206.248 69.9613 206.092 69.8007 205.739 69.3447C205.511 70.5727 205.319 71.5261 205.148 72.4795C204.011 78.7696 202.911 85.0701 201.723 91.3499C201.41 92.7179 200.994 94.0602 200.478 95.3655C200.179 96.0087 199.832 96.6287 199.44 97.2204C198.949 96.6885 198.509 96.1107 198.128 95.495C196.826 92.7593 195.534 90.0235 194.34 87.2359C191.819 81.2929 189.38 75.3188 186.895 69.3603C186.553 68.5365 186.252 67.495 185.224 67.4277C184.041 67.3499 183.735 68.5105 183.382 69.3499C180.913 75.1893 178.49 81.0494 176.067 86.9095C174.225 91.3707 172.466 95.8732 170.536 100.293C169.696 102.068 168.717 103.774 167.61 105.397C166.92 106.469 166.266 106.371 165.887 105.179C165.482 103.954 165.188 102.695 165.01 101.417C164.767 99.4173 164.627 97.3966 164.554 95.381C164.383 90.4432 164.279 85.5054 164.134 80.5624C164.134 80.0753 164.051 79.5831 163.983 78.8318C163.585 79.0942 163.206 79.3833 162.847 79.6971C160.891 81.7126 158.971 83.7644 156.994 85.7644C156.306 86.3733 155.584 86.9424 154.831 87.4691C153.56 84.6763 153.352 81.8888 152.688 78.8836C152.2 79.6349 151.874 80.0753 151.609 80.552C148.658 85.9164 145.718 91.2809 142.789 96.6453C141.108 99.6971 139.416 102.739 137.751 105.79C137.634 106.078 137.433 106.323 137.176 106.496C136.918 106.669 136.614 106.76 136.303 106.759C131.236 106.759 126.17 106.744 121.107 106.713C121.008 106.713 120.915 106.614 120.707 106.5C120.811 106.156 120.941 105.82 121.096 105.495C135.011 81.0943 148.928 56.7005 162.847 32.3137C167.655 23.8715 172.445 15.419 177.219 6.95615C178.21 5.19968 179.061 3.36029 179.974 1.55718C180.108 1.24863 180.262 0.949202 180.435 0.66082C181.037 -0.230372 181.639 -0.230375 182.199 0.722993C183.061 2.16859 183.86 3.65563 184.69 5.11677C188.669 12.096 192.607 19.1064 196.623 26.039C210.594 50.1358 224.587 74.2256 238.602 98.3085C240.07 100.832 241.544 103.345 243.007 105.873C243.189 106.148 243.287 106.464 243.552 107.065ZM181.39 25.6556C181.233 25.8421 181.088 26.0376 180.954 26.2411C177.641 32.362 174.329 38.4812 171.019 44.5986C166.923 52.1461 162.823 59.6902 158.717 67.2308C158.37 67.7368 158.169 68.3283 158.136 68.9406C158.312 70.6401 158.655 72.3188 159.028 74.3758C159.76 73.7593 160.237 73.4069 160.652 72.9976C162.786 70.9251 164.91 68.8387 167.024 66.7385C167.289 66.4487 167.571 66.1754 167.869 65.9199C168.689 65.2774 169.234 65.4639 169.369 66.4795C169.466 67.3153 169.515 68.1561 169.514 68.9976C169.549 74.2169 169.578 79.4345 169.602 84.6504C169.602 85.2359 169.602 85.8266 169.602 86.7541C170.806 85.7437 171.091 84.6401 171.486 83.6453C175.252 74.0943 179.005 64.5382 182.744 54.9769C183.005 54.2383 183.34 53.5282 183.746 52.8577C184.705 51.4173 185.712 51.4484 186.532 52.951C187.279 54.3292 187.964 55.7541 188.576 57.1945C191.17 63.3447 193.723 69.5157 196.307 75.6712C196.504 76.1427 196.784 76.5727 197.194 77.3344C197.401 76.666 197.516 76.4173 197.562 76.153C198.408 71.4639 199.155 66.7541 200.156 62.0909C200.332 61.3982 200.368 60.6777 200.264 59.9709C200.16 59.264 199.917 58.5846 199.549 57.9717C194.973 49.8577 190.459 41.7075 185.909 33.5779C184.446 30.9872 182.962 28.4173 181.39 25.6556Z"
        fill="#283D87" />
    <path
        d="M469.858 19.1685V33.5467C469.075 33.5881 468.369 33.6555 467.658 33.6555H430.676C419.588 33.6555 408.495 33.6555 397.408 33.6918C395.218 33.6918 393.018 33.8628 390.834 34.0493C389.826 34.1508 388.834 34.3699 387.877 34.7021C384.369 35.8835 383.124 37.5467 382.906 41.2565C382.854 42.0959 382.86 42.9405 382.86 43.7799C382.86 57.4793 382.86 71.1788 382.86 84.8783C382.86 85.2721 382.86 85.6659 382.86 86.0597C383.031 89.3861 384.385 91.1477 387.529 92.3084C390.502 93.3964 393.61 93.4068 396.697 93.4172C408.013 93.4534 419.329 93.4172 430.639 93.4172H469.552C469.962 94.9457 469.993 106.645 469.671 108.023H464.779C440.853 108.023 416.928 108.023 393.003 108.023C388.036 108.093 383.111 107.117 378.548 105.158C371.481 102.049 367.819 96.5467 367.134 88.9819C366.978 87.3084 366.942 85.6192 366.936 83.9353C366.936 69.5622 366.936 55.1892 366.936 40.8161C366.911 38.1812 367.3 35.5587 368.088 33.0441C369.254 29.3088 371.675 26.0897 374.942 23.9301C379.007 21.2265 383.739 19.6937 388.619 19.5001C391.82 19.3135 395.026 19.1996 398.233 19.1944C421.259 19.1736 444.283 19.1736 467.305 19.1944L469.858 19.1685Z"
        fill="#283D87" />
    <path
        d="M97.0066 21.1944H112.494C112.53 21.9146 112.582 22.6193 112.587 23.324C112.587 39.6625 112.587 56.001 112.587 72.3395C112.587 77.4483 112.587 82.5571 112.561 87.6659C112.509 95.9561 108.463 101.547 100.95 104.795C97.7627 106.107 94.3778 106.874 90.9363 107.065C87.7402 107.298 84.5286 107.402 81.3222 107.407C67.3603 107.443 53.3984 107.505 39.4366 107.381C34.3727 107.334 29.3711 106.599 24.6186 104.562C17.5209 101.526 14.1485 95.8991 13.1886 88.5519C13.0848 87.5468 13.0484 86.536 13.0797 85.526C13.0797 64.9215 13.0797 44.3153 13.0797 23.7074C13.0797 21.1167 13.0797 21.1167 15.6272 21.1167H28.7797C28.8264 22.0234 28.9042 22.7851 28.9042 23.5468C28.9042 43.982 28.9042 64.419 28.9042 84.8576C28.8999 85.8669 28.9553 86.8756 29.0702 87.8784C29.1898 89.1118 29.6377 90.2909 30.3676 91.2931C31.0975 92.2953 32.0827 93.0842 33.2209 93.5778C35.2686 94.5288 37.5055 95.0036 39.7634 94.9664C54.1767 94.9457 68.5882 94.9457 82.9981 94.9664C84.2353 95.0391 85.4757 95.0391 86.7129 94.9664C88.4976 94.799 90.2625 94.4642 91.9843 93.9664C95.253 92.9302 96.8614 90.5208 96.9081 87.1012C96.9444 84.4069 96.9548 81.7126 96.9548 79.0183C96.9548 60.5485 96.9548 42.077 96.9548 23.6038L97.0066 21.1944Z"
        fill="#283D87" />
    <path
        d="M479.026 134.982H218.093C218.01 134.811 217.885 134.671 217.88 134.526C217.88 134.161 217.901 133.796 217.942 133.433H478.917C478.922 133.93 478.953 134.355 479.026 134.982Z"
        fill="#283D87" />
    <path
        d="M169.644 221.573L166.214 210.231H165.919C164.793 213.977 163.662 217.728 162.51 221.552H157.84C155.962 215.117 154.089 208.687 152.169 202.101H157.451C157.925 204.094 158.395 206.094 158.862 208.101C159.335 210.112 159.807 212.127 160.419 214.163C161.851 210.241 162.645 206.148 163.911 202.106H168.243C169.317 206.137 170.381 210.132 171.527 214.428C172.347 212.977 172.42 211.604 172.746 210.319C173.073 209.034 173.374 207.583 173.696 206.22C174.018 204.858 174.355 203.511 174.703 202.075H179.657C179.72 203.334 175.507 218.407 174.21 221.536L169.644 221.573Z"
        fill="#283D87" />
    <path
        d="M145.84 133.428L145.912 134.733C145.393 135.174 2.9885 135.298 0.0830137 134.904L0 133.428H145.84Z"
        fill="#283D87" />
    <path
        d="M391.721 176.459V186.858H387.192C386.813 185.562 386.746 169.376 387.14 167.298C388.28 167.244 389.422 167.26 390.559 167.345C391.074 167.513 391.511 167.86 391.789 168.324C393.724 171.081 395.608 173.878 397.496 176.656C397.846 177.21 398.307 177.686 398.85 178.055V167.433H403.468C403.816 168.785 403.857 185.049 403.468 186.92C402.43 186.92 401.299 186.92 400.189 186.92C399.416 186.92 399.151 186.303 398.824 185.811C396.962 183.138 395.12 180.454 393.262 177.775C392.92 177.257 392.567 176.79 392.225 176.303L391.721 176.459Z"
        fill="#283D87" />
    <path
        d="M128.625 221.464C128.544 221.508 128.458 221.545 128.37 221.573C124.884 221.925 124.884 221.925 122.902 219.06L117.07 210.645C116.972 211.079 116.902 211.519 116.863 211.961C116.863 214.552 116.863 217.143 116.863 219.697C116.863 220.298 116.8 220.899 116.764 221.573H112.048C111.892 215.112 112.001 208.702 111.975 202.21C113.221 201.935 114.506 201.89 115.768 202.075C116.157 202.117 116.577 202.593 116.847 203.008C118.803 205.816 120.723 208.645 122.663 211.464C122.983 211.953 123.368 212.396 123.81 212.78C124.048 209.288 123.939 205.801 124.017 202.365C125.278 201.925 126.611 201.873 128.536 202.163C128.863 203.365 128.962 219.283 128.625 221.464Z"
        fill="#283D87" />
    <path
        d="M69.3838 176.277V186.811H64.8336C64.4912 185.479 64.4497 169.194 64.8336 167.324C65.9767 167.267 67.1221 167.283 68.2632 167.371C68.7094 167.428 69.1815 167.956 69.4772 168.407C71.5059 171.303 73.4878 174.236 75.4957 177.148C75.7603 177.555 76.1419 177.873 76.5905 178.06V167.422H81.0784C81.4779 168.583 81.5972 184.277 81.2237 186.801C80.0369 187.034 78.8183 187.059 77.623 186.873C77.2338 186.832 76.8343 186.303 76.5853 185.909C74.6448 183.153 72.7407 180.376 70.8158 177.619C70.4734 177.101 70.0998 176.64 69.7418 176.158L69.3838 176.277Z"
        fill="#283D87" />
    <path
        d="M359.953 202.112C363.341 202.112 366.646 202.065 369.946 202.148C370.786 202.227 371.598 202.492 372.322 202.925C373.039 203.287 373.645 203.836 374.074 204.514C374.503 205.193 374.74 205.975 374.759 206.777C374.777 207.58 374.577 208.372 374.18 209.07C373.783 209.767 373.203 210.344 372.503 210.739C372.223 210.91 371.928 211.055 371.502 211.288L372.358 211.63C374.133 212.314 375.227 213.542 375.471 215.469C375.715 217.397 375.113 219.194 373.396 220.293C372.425 220.953 371.313 221.378 370.148 221.531C367.746 221.733 365.323 221.635 362.884 221.65C361.94 221.65 360.991 221.65 360.088 221.65C359.693 220.324 359.595 204.474 359.953 202.112ZM364.705 217.656C365.955 217.715 367.208 217.706 368.457 217.63C369.8 217.474 370.47 216.666 370.47 215.557C370.473 214.986 370.262 214.435 369.877 214.013C369.493 213.591 368.964 213.328 368.394 213.277C367.166 213.212 365.934 213.212 364.705 213.277V217.656ZM364.705 210.044C365.702 210.044 366.485 210.044 367.263 210.044C367.544 210.033 367.823 209.988 368.093 209.909C368.568 209.824 368.999 209.58 369.315 209.217C369.632 208.855 369.816 208.395 369.837 207.915C369.836 207.401 369.639 206.907 369.287 206.533C368.934 206.16 368.451 205.935 367.938 205.904C366.861 205.842 365.782 205.842 364.705 205.904V210.044Z"
        fill="#283D87" />
    <path
        d="M407.344 167.417C410.457 167.417 413.502 167.143 416.491 167.485C421.357 168.034 424.273 171.832 424.201 177.122C424.186 178.523 423.951 179.913 423.505 181.241C422.317 184.661 419.692 186.526 416.179 186.832C413.284 187.081 410.348 186.884 407.447 186.884C407.063 185.635 406.965 169.65 407.344 167.417ZM412.127 182.744C413.291 182.812 414.457 182.802 415.619 182.713C417.648 182.422 418.883 181.215 419.142 179.189C419.321 177.8 419.321 176.393 419.142 175.003C419.06 174.151 418.695 173.352 418.104 172.733C417.513 172.114 416.731 171.711 415.884 171.588C414.648 171.328 413.37 171.337 412.138 171.614L412.127 182.744Z"
        fill="#283D87" />
    <path
        d="M240.699 202.153C241.064 202.085 241.433 202.036 241.804 202.008C244.398 202.008 246.992 201.93 249.586 202.044C254.438 202.262 256.85 206.117 255.724 210.614C255.397 211.904 254.785 212.63 252.751 214.345L256.58 221.542H251.34C250.453 219.889 249.529 218.158 248.601 216.433C247.713 214.79 247.708 214.79 245.488 215.122V221.526H240.709L240.699 202.153ZM245.529 205.78C245.365 207.559 245.379 209.351 245.571 211.127C246.53 211.127 247.314 211.127 248.097 211.127C248.379 211.124 248.659 211.089 248.933 211.023C250.251 210.713 250.904 209.956 250.961 208.692C251.018 207.428 250.406 206.381 249.068 206.101C247.902 205.929 246.727 205.823 245.55 205.785L245.529 205.78Z"
        fill="#283D87" />
    <path
        d="M218.415 211.681C218.569 210.432 218.799 209.193 219.105 207.972C220.381 203.827 224.122 201.428 228.76 201.754C230.801 201.854 232.747 202.649 234.273 204.006C235.799 205.364 236.815 207.202 237.15 209.215C237.577 211.371 237.469 213.598 236.833 215.702C235.583 219.666 232.029 222.08 227.66 221.966C223.421 221.858 220.002 219.267 218.975 215.293C218.684 214.143 218.607 212.956 218.415 211.681ZM232.62 211.868C232.4 210.669 232.098 209.487 231.718 208.329C231.074 206.697 229.704 205.998 227.966 205.992C226.228 205.987 224.853 206.697 224.179 208.303C223.681 209.409 223.424 210.607 223.424 211.819C223.424 213.031 223.681 214.229 224.179 215.334C224.905 217.018 226.316 217.692 228.122 217.65C229.928 217.609 231.168 216.816 231.79 215.189C232.135 214.1 232.412 212.991 232.62 211.868Z"
        fill="#283D87" />
    <path
        d="M241.399 177.303C241.246 178.506 241.026 179.7 240.74 180.878C239.521 184.992 235.821 187.453 231.323 187.241C229.252 187.194 227.26 186.434 225.685 185.09C224.11 183.745 223.048 181.899 222.679 179.863C222.238 177.709 222.332 175.48 222.954 173.371C224.194 169.308 227.717 166.899 232.21 167.018C236.501 167.132 239.936 169.821 240.896 173.904C241.129 174.987 241.207 176.112 241.399 177.303ZM236.351 177.303C236.278 176.562 236.231 175.837 236.127 175.117C236.064 174.729 235.956 174.35 235.806 173.987C235.49 173.18 234.934 172.488 234.212 172.006C233.491 171.523 232.64 171.272 231.772 171.287C230.904 171.301 230.061 171.581 229.357 172.088C228.652 172.594 228.12 173.304 227.831 174.122C227.216 175.944 227.18 177.911 227.728 179.754C228.355 181.93 229.767 182.961 231.915 182.935C234.063 182.909 235.463 181.759 236.019 179.624C236.168 178.863 236.272 178.093 236.33 177.319L236.351 177.303Z"
        fill="#283D87" />
    <path
        d="M131.924 167.386C135.151 167.386 138.306 167.231 141.429 167.438C142.714 167.486 143.945 167.963 144.926 168.792C145.908 169.622 146.582 170.756 146.841 172.013C147.438 174.77 147.007 177.272 144.496 179.044C144.314 179.169 144.143 179.314 143.78 179.604L147.692 186.858C146.131 187.006 144.56 187.023 142.996 186.909C142.664 186.909 142.249 186.454 142.052 186.112C141.237 184.702 140.495 183.251 139.722 181.816C138.83 180.158 138.825 180.158 136.677 180.365C136.35 182.438 136.708 184.552 136.469 186.63C135.312 187.034 134.026 187.086 132.013 186.827C131.665 185.619 131.566 169.64 131.924 167.386ZM136.661 176.495C137.877 176.481 139.09 176.389 140.293 176.22C141.523 175.972 142.021 175.148 142.036 173.884C142.052 172.619 141.518 171.811 140.392 171.438C139.182 171.082 137.902 171.028 136.666 171.283L136.661 176.495Z"
        fill="#283D87" />
    <path
        d="M150.888 212.07C150.839 212.947 150.738 213.821 150.587 214.687C149.586 219.314 145.84 222.127 141.015 221.941C136.299 221.754 132.713 218.562 132.195 213.806C132.003 212.138 132.075 210.451 132.407 208.806C133.377 204.143 137.279 201.412 142.234 201.728C144.39 201.833 146.436 202.71 147.998 204.198C149.559 205.686 150.532 207.686 150.738 209.832C150.816 210.5 150.831 211.174 150.888 212.07ZM146.12 211.759C145.901 210.61 145.606 209.476 145.238 208.365C144.595 206.733 143.246 206.008 141.508 205.998C139.692 205.998 138.317 206.733 137.616 208.417C137.147 209.503 136.907 210.675 136.912 211.858C136.918 213.042 137.168 214.211 137.648 215.293C138.363 216.966 139.754 217.687 141.57 217.656C143.386 217.624 144.641 216.852 145.264 215.226C145.625 214.09 145.911 212.932 146.12 211.759Z"
        fill="#283D87" />
    <path
        d="M340.056 176.075L347.008 186.759C345.242 187.021 343.45 187.058 341.674 186.868C341.316 186.868 340.932 186.246 340.668 185.832C339.319 183.759 338.006 181.687 336.616 179.5C335.391 180.448 334.54 181.428 334.649 183.018C334.727 184.241 334.649 185.469 334.649 186.816H330.032C329.674 185.407 329.653 169.034 330.032 167.402H334.54C334.815 169.941 334.54 172.505 334.732 175.308C335.076 175.046 335.399 174.757 335.697 174.443C337.306 172.422 338.914 170.397 340.476 168.34C340.697 167.985 341.011 167.698 341.385 167.51C341.758 167.322 342.176 167.239 342.593 167.272C343.916 167.35 345.244 167.272 347.013 167.272L340.056 176.075Z"
        fill="#283D87" />
    <path
        d="M371.274 167.371H377.713C379.887 173.785 382.055 180.189 384.271 186.738C382.507 187.132 380.914 186.904 379.197 186.909C378.756 185.63 378.32 184.371 377.842 183.003H371.165L369.816 186.852H364.685C366.911 180.272 369.079 173.868 371.274 167.371ZM374.657 172.723H374.325C373.676 174.795 373.033 176.868 372.353 179.029H376.639C375.949 176.832 375.305 174.78 374.657 172.723Z"
        fill="#283D87" />
    <path
        d="M280.831 186.961C280.364 185.567 279.938 184.303 279.487 182.977H272.794L271.492 186.858H266.371C268.545 180.262 270.729 173.816 272.965 167.371H279.367L285.931 186.733C284.167 187.179 282.527 186.858 280.831 186.961ZM278.319 179.086C277.609 176.832 276.96 174.801 276.317 172.77H275.974L274.003 179.086H278.319Z"
        fill="#283D87" />
    <path
        d="M288.774 167.412H293.251C293.293 168.034 293.36 168.624 293.36 169.22C293.36 172.246 293.36 175.277 293.36 178.308C293.345 178.811 293.36 179.315 293.407 179.816C293.661 181.889 295 183.034 297.039 182.977C299.078 182.92 300.334 181.671 300.365 179.526C300.411 176.163 300.365 172.79 300.365 169.433C300.365 168.775 300.422 168.117 300.458 167.36H305.128C305.169 168.018 305.237 168.614 305.237 169.21C305.237 172.405 305.237 175.602 305.237 178.801C305.237 184.422 301.983 187.474 296.292 187.2C294.767 187.158 293.273 186.757 291.934 186.029C290.944 185.5 290.115 184.717 289.531 183.76C288.947 182.804 288.63 181.708 288.613 180.588C288.494 176.381 288.577 172.174 288.587 167.966C288.623 167.774 288.686 167.587 288.774 167.412Z"
        fill="#283D87" />
    <path
        d="M44.423 167.381H49.1963C49.2326 168.106 49.2897 168.764 49.2897 169.417C49.2897 172.785 49.2585 176.153 49.3208 179.516C49.3571 181.785 50.7736 183.055 52.9527 182.972C53.7788 182.989 54.5807 182.692 55.1955 182.141C55.8102 181.589 56.1919 180.825 56.2628 180.003C56.3165 179.5 56.3338 178.995 56.3147 178.49C56.3147 175.46 56.3147 172.431 56.3147 169.402V167.443H61.0621C61.0932 168.101 61.1451 168.697 61.1451 169.298C61.1451 172.607 61.1451 175.916 61.1451 179.226C61.1451 183.816 58.883 186.433 54.3276 187.132C52.4259 187.439 50.4762 187.209 48.6982 186.469C46.488 185.542 44.8692 183.951 44.5942 181.521C44.1013 176.889 44.4801 172.241 44.423 167.381Z"
        fill="#283D87" />
    <path
        d="M339.822 202.101H344.362C344.409 202.723 344.481 203.314 344.486 203.904C344.486 207.158 344.486 210.412 344.486 213.661C344.465 214.387 344.572 215.112 344.803 215.801C345.322 217.153 346.759 217.821 348.435 217.65C349.115 217.627 349.769 217.378 350.292 216.943C350.815 216.508 351.179 215.911 351.325 215.246C351.461 214.589 351.526 213.918 351.517 213.246C351.517 210.215 351.517 207.189 351.517 204.158V202.143C353.084 201.968 354.665 201.938 356.238 202.055C356.28 202.77 356.337 203.366 356.337 203.967C356.337 207.331 356.337 210.695 356.337 214.06C356.337 218.422 354.173 220.967 349.893 221.764C348.164 222.082 346.385 221.981 344.704 221.469C341.695 220.578 339.755 218.36 339.63 215.252C339.469 211.106 339.583 206.961 339.589 202.816C339.637 202.569 339.715 202.329 339.822 202.101Z"
        fill="#283D87" />
    <path
        d="M165.213 173.122H160.979C160.305 171.412 158.904 170.806 157.104 171.096C156.715 171.149 156.34 171.27 155.993 171.453C154.847 172.122 154.785 173.526 155.952 174.158C156.819 174.548 157.72 174.857 158.645 175.08C159.998 175.441 161.327 175.885 162.624 176.412C164.757 177.422 165.768 179.205 165.644 181.593C165.638 182.645 165.308 183.668 164.699 184.526C164.09 185.383 163.232 186.033 162.24 186.386C160.785 187.007 159.216 187.315 157.634 187.291C156.052 187.267 154.492 186.911 153.057 186.246C150.722 185.21 149.69 183.246 149.638 180.547C151.064 180.363 152.505 180.329 153.939 180.443C155.194 182.816 156.294 183.474 158.479 183.174C158.926 183.116 159.358 182.978 159.755 182.764C161.078 182.013 161.109 180.552 159.755 179.873C158.771 179.466 157.756 179.137 156.72 178.889C155.469 178.575 154.24 178.178 153.041 177.702C148.948 175.775 149.591 171.06 151.931 168.998C154.748 166.516 160.341 166.339 163.268 168.697C164.648 169.801 165.255 171.106 165.213 173.122Z"
        fill="#283D87" />
    <path
        d="M181.733 215.174H186.034C186.155 215.337 186.263 215.511 186.355 215.692C186.554 216.156 186.844 216.576 187.207 216.927C187.571 217.277 188.001 217.552 188.472 217.735C188.943 217.917 189.446 218.004 189.951 217.989C190.457 217.975 190.954 217.859 191.414 217.65C192.203 217.334 192.805 216.837 192.81 215.941C192.794 215.57 192.657 215.214 192.42 214.928C192.183 214.642 191.859 214.44 191.497 214.355C190.6 214.034 189.66 213.837 188.742 213.562C187.668 213.246 186.563 212.998 185.525 212.578C183.554 211.785 182.267 210.386 182.163 208.158C182.074 207.141 182.282 206.119 182.76 205.216C183.239 204.314 183.968 203.568 184.861 203.07C186.162 202.279 187.631 201.806 189.15 201.69C190.668 201.574 192.192 201.817 193.598 202.402C194.332 202.691 195.007 203.11 195.591 203.64C196.193 204.141 196.667 204.779 196.972 205.5C197.277 206.221 197.405 207.005 197.344 207.785H193.111C191.699 205.878 191.035 205.526 189.126 205.795C188.793 205.837 188.468 205.934 188.166 206.08C186.905 206.738 186.791 208.2 188.026 208.878C188.896 209.264 189.799 209.569 190.724 209.79C192.079 210.146 193.409 210.593 194.703 211.127C195.689 211.561 196.512 212.297 197.051 213.228C197.59 214.16 197.818 215.239 197.702 216.308C197.686 217.36 197.348 218.382 196.733 219.236C196.118 220.09 195.256 220.735 194.262 221.086C192.805 221.701 191.234 222.003 189.651 221.972C188.069 221.941 186.511 221.577 185.079 220.904C182.77 219.863 181.701 217.946 181.733 215.174Z"
        fill="#283D87" />
    <path
        d="M108.821 207.889C107.409 207.889 106.133 207.93 104.862 207.858C104.571 207.858 104.25 207.448 104.047 207.163C103.567 206.509 102.878 206.037 102.094 205.823C101.311 205.609 100.477 205.667 99.7305 205.987C99.4086 206.101 99.1297 206.312 98.9319 206.59C98.7341 206.868 98.6271 207.2 98.6254 207.542C98.6061 207.853 98.6887 208.163 98.8609 208.424C99.0331 208.684 99.2855 208.882 99.5801 208.987C100.41 209.319 101.287 209.505 102.143 209.795C103.443 210.13 104.72 210.547 105.967 211.044C106.995 211.463 107.859 212.204 108.43 213.155C109 214.106 109.247 215.216 109.132 216.319C109.104 217.426 108.728 218.496 108.057 219.378C107.387 220.261 106.456 220.91 105.396 221.236C102.684 222.269 99.6814 222.245 96.9859 221.168C94.428 220.168 93.1569 218.194 93.105 215.22C94.4453 215.047 95.8007 215.021 97.1467 215.143C97.9509 216.049 98.4801 216.982 99.2791 217.448C99.9899 217.858 101.007 217.842 101.873 217.842C102.43 217.818 102.97 217.639 103.43 217.324C103.663 217.188 103.855 216.992 103.986 216.757C104.118 216.521 104.184 216.255 104.179 215.986C104.173 215.717 104.095 215.454 103.953 215.224C103.812 214.995 103.611 214.808 103.373 214.681C102.62 214.313 101.83 214.025 101.017 213.821C99.4244 213.303 97.7434 212.966 96.2439 212.267C93.8573 211.122 92.9908 208.671 93.8106 206.148C94.0313 205.449 94.3909 204.801 94.8678 204.244C95.3447 203.687 95.9292 203.231 96.5864 202.904C97.9483 202.155 99.4707 201.745 101.025 201.708C102.579 201.671 104.119 202.009 105.516 202.692C107.612 203.619 108.738 205.308 108.821 207.889Z"
        fill="#283D87" />
    <path
        d="M277.339 215.184H281.682C282.937 217.505 284.006 218.158 286.175 217.852C286.73 217.777 287.262 217.579 287.731 217.272C287.968 217.139 288.163 216.944 288.297 216.708C288.43 216.472 288.496 216.204 288.487 215.934C288.479 215.663 288.396 215.399 288.248 215.172C288.1 214.945 287.893 214.763 287.648 214.645C286.95 214.292 286.213 214.019 285.453 213.832C283.897 213.345 282.273 213.049 280.784 212.386C278.221 211.226 277.277 208.925 278.019 206.246C278.363 205.047 279.113 204.003 280.141 203.293C282.896 201.262 287.679 201.143 290.517 203.055C291.324 203.546 291.983 204.247 292.422 205.083C292.862 205.919 293.066 206.858 293.013 207.801H288.655C287.985 205.868 286.418 205.557 284.597 205.821C284.172 205.845 283.768 206.012 283.45 206.294C283.131 206.576 282.918 206.957 282.844 207.376C282.756 208.324 283.363 208.842 284.125 209.127C284.888 209.412 285.749 209.562 286.553 209.821C287.905 210.178 289.227 210.639 290.507 211.2C292.546 212.236 293.469 214.008 293.345 216.324C293.338 217.344 293.023 218.337 292.442 219.176C291.861 220.014 291.04 220.658 290.087 221.023C288.615 221.68 287.02 222.013 285.408 221.999C283.797 221.984 282.207 221.624 280.748 220.941C278.444 219.899 277.427 217.946 277.339 215.184Z"
        fill="#283D87" />
    <path
        d="M128.178 167.5V171.127C125.289 171.283 122.44 171.127 119.472 171.236V175.018C122.025 175.283 124.661 175.018 127.229 175.179C127.722 176.444 127.731 177.846 127.255 179.117H119.472V182.904C122.279 183.272 125.143 182.858 128.028 183.137C128.49 184.371 128.365 185.557 128.137 186.847H114.803C114.424 185.666 114.284 169.941 114.647 167.588C115.841 167.236 126.082 167.169 128.178 167.5Z"
        fill="#283D87" />
    <path
        d="M315.764 214.837H320.49C320.35 215.572 320.158 216.295 319.914 217.003C318.394 220.495 314.555 222.453 310.404 221.884C306.253 221.314 303.291 218.583 302.621 214.391C302.368 212.791 302.351 211.162 302.57 209.557C303.706 201.785 311.592 200.334 316.339 202.775C317.247 203.231 318.051 203.869 318.701 204.649C319.35 205.429 319.832 206.334 320.117 207.308C320.26 207.885 320.368 208.47 320.438 209.06H315.738C315.636 208.871 315.544 208.678 315.463 208.479C314.907 206.837 313.73 206.06 312.028 206.003C310.326 205.946 308.873 206.521 308.121 208.122C307.541 209.282 307.24 210.561 307.24 211.858C307.24 213.154 307.541 214.433 308.121 215.593C308.853 217.117 310.233 217.666 311.888 217.666C313.543 217.666 314.716 217.023 315.38 215.5C315.515 215.288 315.623 215.096 315.764 214.837Z"
        fill="#283D87" />
    <path
        d="M326.55 174.422H321.948C321.824 174.233 321.717 174.034 321.627 173.827C321.056 172.096 319.8 171.34 318.042 171.319C316.283 171.298 314.856 172.044 314.13 173.713C313.665 174.772 313.417 175.915 313.402 177.072C313.387 178.229 313.604 179.377 314.041 180.448C314.303 181.198 314.795 181.847 315.447 182.302C316.099 182.757 316.878 182.995 317.673 182.982C319.474 183.044 320.869 182.464 321.58 180.687C321.671 180.509 321.772 180.336 321.881 180.169H326.55C326.436 180.838 326.273 181.497 326.063 182.143C324.563 185.821 320.631 187.842 316.371 187.2C312.111 186.557 309.398 183.785 308.671 179.604C308.267 177.499 308.392 175.327 309.035 173.283C311.426 165.868 320.252 165.816 323.977 169.137C324.751 169.79 325.38 170.598 325.824 171.508C326.267 172.418 326.514 173.411 326.55 174.422Z"
        fill="#283D87" />
    <path
        d="M92.27 167.371H97.6503C99.072 171.961 100.488 176.545 101.9 181.122L102.263 181.153C103.674 176.588 105.08 172.029 106.512 167.402H111.856C109.781 173.951 107.498 180.314 105.334 186.827H98.8437L92.27 167.371Z"
        fill="#283D87" />
    <path
        d="M205.444 215.542V221.536H200.93C200.541 220.397 200.411 205.003 200.748 202.303C200.836 202.231 200.919 202.101 201.007 202.101C204.043 202.101 207.088 201.899 210.108 202.101C213.698 202.36 215.991 205.21 215.945 208.925C215.898 212.64 213.454 215.21 209.636 215.51C208.354 215.63 207.057 215.542 205.444 215.542ZM205.532 211.915C206.771 211.847 208.004 211.69 209.221 211.443C210.445 211.106 210.948 210.065 210.891 208.65C210.834 207.329 210.264 206.505 209.06 206.122C207.913 205.788 206.7 205.743 205.532 205.992V211.915Z"
        fill="#283D87" />
    <path
        d="M244.704 167.381H257.883V171.06C255.081 171.417 252.279 170.992 249.431 171.308V175.091H256.871C257.208 176.398 257.24 177.764 256.964 179.086H249.353V186.858H244.813C244.445 185.625 244.341 169.713 244.704 167.381Z"
        fill="#283D87" />
    <path
        d="M206.637 186.858H201.864C201.864 185.402 201.755 184.013 201.827 182.635C201.905 181.122 201.523 179.622 200.733 178.329C198.958 175.277 197.298 172.153 195.601 169.055C195.342 168.573 195.114 168.075 194.735 167.303C196.463 167.303 197.952 167.241 199.43 167.345C199.804 167.345 200.266 167.863 200.468 168.241C201.459 170.065 202.377 171.925 203.322 173.77C203.576 174.288 203.84 174.738 204.25 175.479C204.816 174.381 205.288 173.511 205.724 172.63C206.466 171.179 207.223 169.739 207.924 168.272C208.031 167.954 208.244 167.682 208.527 167.5C208.809 167.318 209.146 167.238 209.48 167.272C210.798 167.319 212.121 167.272 213.714 167.272C213.335 168.07 213.128 168.573 212.868 169.044C211.12 172.241 209.397 175.459 207.581 178.619C206.921 179.727 206.6 181.005 206.658 182.293C206.715 183.816 206.637 185.303 206.637 186.858Z"
        fill="#283D87" />
    <path
        d="M186.885 186.884H182.215C181.93 181.733 182.252 176.599 182.039 171.267H176.57C176.052 169.837 176.01 169.091 176.399 167.407H192.753V171.112L186.885 171.282V186.884Z"
        fill="#283D87" />
    <path
        d="M258.521 205.816V202.127H274.978V205.873H269.219C269.141 211.231 269.219 216.36 269.167 221.552H264.44V206.008L258.521 205.816Z"
        fill="#283D87" />
    <path
        d="M349.421 167.407H354.059C354.205 169.998 354.111 172.588 354.132 175.122C354.153 177.656 354.132 180.163 354.132 182.894C356.825 183.267 359.46 182.894 362.2 183.158V186.858H349.421V167.407Z"
        fill="#283D87" />
    <path
        d="M323.853 202.096H328.465C328.543 207.277 328.465 212.324 328.517 217.604C331.194 217.941 333.825 217.604 336.445 217.821C336.964 219.08 336.694 220.267 336.657 221.552H323.956C323.598 220.324 323.495 204.51 323.853 202.096Z"
        fill="#283D87" />
    <path
        d="M181.489 136.08C181.12 137.593 180.97 139.127 180.379 140.49C179.413 142.78 177.515 143.842 175.014 143.842C172.513 143.842 170.63 142.806 169.618 140.521C168.997 139.162 168.676 137.685 168.676 136.192C168.676 134.698 168.997 133.222 169.618 131.863C170.614 129.567 172.523 128.547 175.009 128.542C177.494 128.536 179.424 129.547 180.41 131.842C180.949 133.158 181.126 134.63 181.489 136.08ZM177.629 136.329C177.49 135.272 177.29 134.224 177.032 133.189C176.679 132.044 175.896 131.516 174.957 131.552C174.502 131.559 174.063 131.715 173.706 131.996C173.348 132.277 173.093 132.667 172.98 133.106C172.261 135.119 172.274 137.32 173.016 139.324C173.137 139.761 173.402 140.144 173.769 140.412C174.135 140.68 174.581 140.817 175.034 140.801C175.461 140.808 175.878 140.675 176.221 140.422C176.565 140.17 176.815 139.811 176.933 139.402C177.224 138.393 177.456 137.369 177.629 136.334V136.329Z"
        fill="#283D87" />
    <path
        d="M207.192 141.308L206.995 143.381H203.747C203.659 142.671 203.581 142.023 203.472 141.163H196.779C196.38 139.697 196.292 138.495 197.054 137.314C198.663 134.816 200.276 132.324 201.822 129.79C202.013 129.416 202.314 129.109 202.686 128.913C203.057 128.716 203.481 128.639 203.898 128.692C204.889 128.749 205.885 128.692 207.078 128.692V137.915L208.759 138.371V140.826L207.192 141.308ZM203.56 138.023V133.189C202.282 134.662 201.19 136.285 200.307 138.023H203.56Z"
        fill="#283D87" />
    <path
        d="M161.192 140.562H166.448V143.396C162.868 143.588 159.309 143.495 155.724 143.448C155.283 141.894 155.449 140.769 156.761 139.79C158.287 138.64 159.672 137.313 161.083 136.023C161.634 135.547 162.111 134.992 162.5 134.376C162.652 134.154 162.755 133.903 162.802 133.638C162.849 133.374 162.839 133.103 162.772 132.842C162.705 132.582 162.583 132.339 162.415 132.13C162.246 131.921 162.034 131.75 161.794 131.63C161.557 131.499 161.297 131.416 161.028 131.387C160.759 131.358 160.487 131.382 160.228 131.459C159.969 131.536 159.728 131.663 159.518 131.834C159.308 132.004 159.135 132.215 159.008 132.453C158.851 132.75 158.713 133.057 158.593 133.37H155.589C155.435 132.56 155.556 131.722 155.932 130.988C156.307 130.253 156.917 129.664 157.664 129.313C158.686 128.762 159.834 128.484 160.996 128.506C162.157 128.527 163.294 128.848 164.295 129.438C164.802 129.721 165.242 130.109 165.588 130.575C165.933 131.041 166.176 131.575 166.299 132.142C166.422 132.709 166.423 133.295 166.302 133.863C166.181 134.43 165.941 134.965 165.597 135.433C164.781 136.503 163.877 137.503 162.894 138.422C162.318 139.018 161.68 139.552 161.068 140.117C161.104 140.225 161.151 140.407 161.192 140.562Z"
        fill="#283D87" />
    <path
        d="M183.855 143.433C183.445 141.878 183.6 140.733 184.892 139.754C186.407 138.599 187.793 137.277 189.204 135.992C189.711 135.55 190.158 135.043 190.532 134.485C190.691 134.269 190.804 134.024 190.864 133.764C190.924 133.503 190.929 133.234 190.881 132.971C190.832 132.708 190.73 132.458 190.581 132.236C190.432 132.015 190.238 131.826 190.013 131.681C189.774 131.534 189.508 131.438 189.23 131.398C188.952 131.359 188.669 131.377 188.398 131.451C188.127 131.525 187.875 131.655 187.657 131.831C187.438 132.007 187.258 132.226 187.128 132.474C186.983 132.713 186.895 132.992 186.729 133.334H183.554C183.461 132.539 183.613 131.734 183.988 131.027C184.363 130.319 184.944 129.742 185.655 129.371C186.659 128.788 187.799 128.479 188.96 128.472C190.122 128.466 191.265 128.763 192.275 129.334C192.792 129.599 193.247 129.97 193.609 130.423C193.971 130.877 194.233 131.402 194.377 131.964C194.52 132.526 194.543 133.112 194.443 133.683C194.343 134.254 194.122 134.798 193.796 135.277C193.047 136.325 192.197 137.297 191.258 138.179C190.605 138.858 189.868 139.459 189.001 140.251C190.921 140.878 192.737 140.251 194.548 140.77V143.443C190.968 143.547 187.44 143.521 183.855 143.433Z"
        fill="#283D87" />
    <path
        d="M89.4578 186.858H84.9336V167.454C86.395 167.247 87.8766 167.225 89.3437 167.386C89.7121 168.666 89.8055 184.625 89.4578 186.858Z"
        fill="#283D87" />
    <path
        d="M173.162 186.858H168.648V167.438C170.106 167.267 171.578 167.236 173.042 167.345C173.432 168.656 173.525 184.63 173.162 186.858Z"
        fill="#283D87" />
</svg>