<svg xmlns="http://www.w3.org/2000/svg" viewBox="0 0 20.14 17.26"><g id="Layer_2" data-name="Layer 2"><g id="Layer_1-2" data-name="Layer 1"><path d="M10,17.26c-2.7,0-5.39,0-8.08,0A2.54,2.54,0,0,1,.73,17a1.23,1.23,0,0,1-.6-1.69,10.81,10.81,0,0,1,.76-1.37Q4.34,8.1,7.82,2.32c.31-.52.64-1,1-1.54a1.42,1.42,0,0,1,2.54,0C12.69,2.92,14,5.09,15.28,7.25c1.47,2.44,2.92,4.88,4.4,7.31.38.63.68,1.25.25,1.94a1.84,1.84,0,0,1-1.77.76C15.43,17.25,12.71,17.26,10,17.26Zm1-8.62h0l.06-1.21c.06-1.26.06-1.27-1.24-1.22H9.64c-.43,0-.59.2-.57.59.06,1.27.12,2.54.16,3.81,0,.54.36.59.79.57s.88.08.89-.55S11,9.3,11,8.64Zm.14,4.9a.94.94,0,0,0-1.05-.94C9.44,12.6,9,13,9,13.51a1,1,0,0,0,1,1A1,1,0,0,0,11.14,13.54Z"/></g></g></svg>