<svg xmlns="http://www.w3.org/2000/svg" width="21" height="62" viewBox="0 0 21 62" fill="none">
  <path d="M0.803038 60.6353C0.288853 59.7612 0 58.5758 0 57.3399C0 56.1039 0.288853 54.9185 0.803038 54.0444L14.3796 30.9719L0.803038 7.89927C0.303425 7.02017 0.0269718 5.84276 0.0332203 4.62062C0.0394707 3.39849 0.327921 2.22942 0.836447 1.36521C1.34497 0.500999 2.03289 0.0107994 2.75203 0.000179291C3.47116 -0.0104408 4.16399 0.459373 4.68127 1.30844L20.197 27.6764C20.7111 28.5505 21 29.7359 21 30.9719C21 32.2078 20.7111 33.3932 20.197 34.2673L4.68127 60.6353C4.16693 61.5091 3.46943 62 2.74216 62C2.01488 62 1.31738 61.5091 0.803038 60.6353Z" fill="white"/>
</svg>