<svg xmlns="http://www.w3.org/2000/svg" width="21" height="62" viewBox="0 0 21 62" fill="none">
  <path d="M20.197 60.6353C20.7111 59.7612 21 58.5758 21 57.3399C21 56.1039 20.7111 54.9185 20.197 54.0444L6.62039 30.9719L20.197 7.89927C20.6966 7.02017 20.973 5.84276 20.9668 4.62062C20.9605 3.39849 20.6721 2.22942 20.1636 1.36521C19.655 0.500999 18.9671 0.0107994 18.248 0.000179291C17.5288 -0.0104408 16.836 0.459373 16.3187 1.30844L0.803037 27.6764C0.288853 28.5505 0 29.7359 0 30.9719C0 32.2078 0.288853 33.3932 0.803037 34.2673L16.3187 60.6353C16.8331 61.5091 17.5306 62 18.2578 62C18.9851 62 19.6826 61.5091 20.197 60.6353Z" fill="white"/>
</svg>