<svg xmlns="http://www.w3.org/2000/svg" version="1.1" viewBox="-5.0 -10.0 110.0 135.0">
 <g>
  <path d="m58.137 22.086c0.097656 8.1602-6.7266 15.414-18.031 15.414h-19.273c-2.3008 0-4.1641-1.8672-4.1641-4.168s1.8633-4.1641 4.1641-4.1641h19.273c7.4453 0 9.7344-4.207 9.6992-6.9844-0.019532-1.543-0.67578-3.0156-1.9766-4.0547-1.2852-1.0273-3.5625-1.9102-7.25-1.4883-2.2891 0.26172-4.3516-1.3828-4.6133-3.668-0.26172-2.2852 1.3789-4.3516 3.668-4.6133 5.4258-0.62109 10.047 0.58203 13.402 3.2617 3.3398 2.6719 5.0547 6.543 5.1016 10.465z"/>
  <path d="m92.188 33.855c0 9.8477-7.3398 20.312-21.355 20.312h-58.332c-2.3008 0-4.168-1.8672-4.168-4.168s1.8672-4.168 4.168-4.168h58.332c8.9023 0 13.023-6.2031 13.023-11.977 0-2.9336-1.0742-5.4883-2.8945-7.1055-1.7383-1.5391-4.668-2.6758-9.3828-1.8164-2.2617 0.41016-4.4336-1.0898-4.8438-3.3555-0.41406-2.2617 1.0898-4.4336 3.3555-4.8438 6.7422-1.2266 12.406 0.24219 16.398 3.7812 3.9062 3.4609 5.6992 8.457 5.6992 13.34z"/>
  <path d="m20.832 62.5c-2.3008 0-4.1641 1.8672-4.1641 4.168s1.8633 4.1641 4.1641 4.1641h39.715c5.5156 0 6.6719 2.8477 6.6719 4.168s-1.1562 4.168-6.6719 4.168c-2.3008 0-4.1641 1.8633-4.1641 4.1641s1.8633 4.168 4.1641 4.168c8.9414 0 15.008-5.4844 15.008-12.5s-6.0664-12.5-15.008-12.5z"/>
 </g>
</svg>