<svg xmlns="http://www.w3.org/2000/svg" viewBox="0 0 16.61 16.63"><g id="Layer_2" data-name="Layer 2"><g id="Layer_1-2" data-name="Layer 1"><path d="M9.92,8.37,12,10.53l4.11,4.11a3.31,3.31,0,0,1,.27.26,1.25,1.25,0,0,1,0,1.35,1.14,1.14,0,0,1-1.31.27,3.9,3.9,0,0,1-.81-.66L8.69,10.28c-.11-.11-.23-.2-.41-.35-.89.87-1.75,1.71-2.6,2.56L2.17,16a3,3,0,0,1-.42.38,1.18,1.18,0,0,1-1.49-.06,1.19,1.19,0,0,1,.07-1.56c1.09-1.11,2.2-2.2,3.3-3.31l3.1-3.11C6.08,7.67,5.47,7,4.85,6.41,3.42,5,2,3.54.53,2.1a2.66,2.66,0,0,1-.32-.35A1.2,1.2,0,0,1,.35.26,1.05,1.05,0,0,1,1.81.33c.83.78,1.64,1.6,2.45,2.4L7.89,6.36a3,3,0,0,0,.46.31c.51-.48,1-.94,1.51-1.43L14.29.77a5.24,5.24,0,0,1,.5-.44,1.07,1.07,0,0,1,1.53,0,1.13,1.13,0,0,1,0,1.55c-.36.41-.76.77-1.14,1.16L10.22,8A4.47,4.47,0,0,0,9.92,8.37Z"/></g></g></svg>